<?xml version="1.0" encoding="UTF-8"?>
<svg id="Capa_2" data-name="Capa 2" xmlns="http://www.w3.org/2000/svg" xmlns:xlink="http://www.w3.org/1999/xlink" viewBox="0 0 404.2 355.19">
  <defs>
    <style>
      .cls-1 {
        fill: #1d1d1b;
      }

      .cls-2 {
        fill: url(#Degradado_sin_nombre_76-9);
      }

      .cls-3 {
        fill: url(#Degradado_sin_nombre_76-8);
      }

      .cls-4 {
        fill: url(#Degradado_sin_nombre_76-2);
      }

      .cls-5 {
        fill: url(#Degradado_sin_nombre_76-3);
      }

      .cls-6 {
        fill: url(#Degradado_sin_nombre_76-5);
      }

      .cls-7 {
        fill: url(#Degradado_sin_nombre_76-6);
      }

      .cls-8 {
        fill: url(#Degradado_sin_nombre_76-4);
      }

      .cls-9 {
        fill: url(#Degradado_sin_nombre_76-7);
      }

      .cls-10 {
        fill: #393e8d;
      }

      .cls-11 {
        fill: #383f8d;
      }

      .cls-12 {
        fill: url(#Degradado_sin_nombre_76);
      }

      .cls-13 {
        fill: url(#Degradado_sin_nombre_76-10);
      }

      .cls-14 {
        fill: url(#Degradado_sin_nombre_76-11);
      }
    </style>
    <linearGradient id="Degradado_sin_nombre_76" data-name="Degradado sin nombre 76" x1="110.06" y1="156.98" x2="290.15" y2="156.98" gradientTransform="translate(2.83 2.83)" gradientUnits="userSpaceOnUse">
      <stop offset="0" stop-color="#d75f97"/>
      <stop offset="1" stop-color="#f2d568"/>
    </linearGradient>
    <linearGradient id="Degradado_sin_nombre_76-2" data-name="Degradado sin nombre 76" gradientTransform="translate(2.55 2.55)" xlink:href="#Degradado_sin_nombre_76"/>
    <linearGradient id="Degradado_sin_nombre_76-3" data-name="Degradado sin nombre 76" gradientTransform="translate(2.27 2.27)" xlink:href="#Degradado_sin_nombre_76"/>
    <linearGradient id="Degradado_sin_nombre_76-4" data-name="Degradado sin nombre 76" gradientTransform="translate(1.98 1.98)" xlink:href="#Degradado_sin_nombre_76"/>
    <linearGradient id="Degradado_sin_nombre_76-5" data-name="Degradado sin nombre 76" gradientTransform="translate(1.7 1.7)" xlink:href="#Degradado_sin_nombre_76"/>
    <linearGradient id="Degradado_sin_nombre_76-6" data-name="Degradado sin nombre 76" gradientTransform="translate(1.42 1.42)" xlink:href="#Degradado_sin_nombre_76"/>
    <linearGradient id="Degradado_sin_nombre_76-7" data-name="Degradado sin nombre 76" gradientTransform="translate(1.13 1.13)" xlink:href="#Degradado_sin_nombre_76"/>
    <linearGradient id="Degradado_sin_nombre_76-8" data-name="Degradado sin nombre 76" gradientTransform="translate(.85 .85)" xlink:href="#Degradado_sin_nombre_76"/>
    <linearGradient id="Degradado_sin_nombre_76-9" data-name="Degradado sin nombre 76" gradientTransform="translate(.57 .57)" xlink:href="#Degradado_sin_nombre_76"/>
    <linearGradient id="Degradado_sin_nombre_76-10" data-name="Degradado sin nombre 76" gradientTransform="translate(.28 .28)" xlink:href="#Degradado_sin_nombre_76"/>
    <linearGradient id="Degradado_sin_nombre_76-11" data-name="Degradado sin nombre 76" gradientTransform="matrix(1,0,0,1,0,0)" xlink:href="#Degradado_sin_nombre_76"/>
  </defs>
  <g>
    <path class="cls-10" d="M131.56,273.45c1.27,1.57,2.04,3.55,2.04,5.71,0,2.51-1.03,4.78-2.68,6.43-1.65,1.65-3.92,2.67-6.42,2.67-10,0-18.19-8.19-18.19-18.19h4.06c-2.54-3.13-4.06-7.11-4.06-11.43h18.19c5,0,9.1,4.09,9.1,9.09,0,2.17-.77,4.16-2.04,5.72Z"/>
    <g>
      <path class="cls-10" d="M151.98,273.86c1.55,1.4,2.63,3.56,2.63,6.12s-1.08,4.68-2.63,6.08c-1.33,1.22-3.35,2.2-6.3,2.2s-4.97-.97-6.3-2.2c-1.55-1.4-2.63-3.56-2.63-6.08s1.08-4.71,2.63-6.12c1.33-1.22,3.35-2.2,6.3-2.2s4.97.97,6.3,2.2ZM150.08,279.97c0-2.45-1.87-4.43-4.39-4.43s-4.39,1.98-4.39,4.43,1.84,4.39,4.39,4.39,4.39-2.02,4.39-4.39Z"/>
      <path class="cls-10" d="M172.43,273.86c1.55,1.4,2.63,3.56,2.63,6.12s-1.08,4.68-2.63,6.08c-1.33,1.22-3.35,2.2-6.3,2.2s-4.97-.97-6.3-2.2c-1.55-1.4-2.63-3.56-2.63-6.08s1.08-4.71,2.63-6.12c1.33-1.22,3.35-2.2,6.3-2.2s4.97.97,6.3,2.2ZM170.52,279.97c0-2.45-1.87-4.43-4.39-4.43s-4.39,1.98-4.39,4.43,1.84,4.39,4.39,4.39,4.39-2.02,4.39-4.39Z"/>
      <path class="cls-10" d="M183.77,263.74v19.98h7.42v4.03h-12.09v-24.01h4.68Z"/>
      <path class="cls-10" d="M207.75,267.77h-8.64v5.36h8.28v4.03h-8.28v6.55h8.64v4.03h-13.32v-24.01h13.32v4.03Z"/>
      <path class="cls-10" d="M214.73,263.74l6.41,16.13,6.41-16.13h5.11l-10.15,24.01h-2.81l-10.08-24.01h5.11Z"/>
      <path class="cls-10" d="M247.45,282.71h-9.68l-2.12,5.04h-5.08l10.33-24.01h3.67l10.04,24.01h-5.04l-2.12-5.04ZM246.09,278.9l-3.42-8.64-3.42,8.64h6.84Z"/>
      <path class="cls-10" d="M264.37,263.74c3.31,0,5,.86,6.12,1.8,1.84,1.55,2.38,3.6,2.38,5.4,0,2.34-.94,4.39-2.81,5.65-.61.43-1.48.83-2.63,1.04l7.49,10.11h-5.83l-6.41-9.65h-.58v9.65h-4.68v-24.01h6.95ZM262.11,274.79h1.33c.9,0,4.61-.11,4.61-3.64s-3.67-3.6-4.54-3.6h-1.4v7.24Z"/>
      <path class="cls-10" d="M284.35,263.74c3.35,0,6.26.36,8.93,2.34,2.92,2.2,4.61,5.69,4.61,9.68s-1.66,7.45-4.82,9.68c-2.81,1.98-5.44,2.3-8.78,2.3h-6.19v-24.01h6.26ZM282.77,283.72h1.44c1.19,0,3.78-.07,5.87-1.58,1.91-1.37,2.99-3.82,2.99-6.37s-1.04-4.97-2.95-6.41c-1.94-1.44-4.32-1.58-5.9-1.58h-1.44v15.95Z"/>
    </g>
  </g>
  <g>
    <path class="cls-1" d="M200.1,66.93c-49.65,0-90.04,40.4-90.04,90.05s40.39,90.05,90.04,90.05,90.05-40.39,90.05-90.05-40.39-90.05-90.05-90.05ZM268.14,129.59c-3.76,0-6.81,3.05-6.81,6.81,0,2.48,1.33,4.65,3.31,5.84v66.95c-10.5,12.96-24.82,22.7-41.23,27.51v-17.04c0-1.29.22-4.49,2.31-6.26,1.58-1.33,4.15-1.77,6.44-2.03,4.88-.54,11.96-1.89,17.08-7.37,6.35-6.79,6.34-15.58,6.34-23.34v-57.66c.03-1.14.19-12.7-6.14-19.26-2.88-3-6.59-4.52-11-4.52h-18.86c-1.19-1.98-3.36-3.31-5.84-3.31-3.76,0-6.81,3.05-6.81,6.81s3.05,6.82,6.81,6.82c2.48,0,4.66-1.33,5.84-3.32h18.86c2.47,0,4.42.78,5.95,2.36,3.7,3.83,4.28,11.58,4.19,14.24v57.84c0,7.09,0,13.79-4.45,18.56-2.73,2.92-6.66,4.52-12.74,5.19-3.34.38-7.17,1.1-10.18,3.64-3.1,2.61-4.8,6.74-4.8,11.61v18.76c-3.03.61-6.11,1.05-9.25,1.31v-21.15c1.98-1.19,3.31-3.36,3.31-5.85,0-3.76-3.05-6.81-6.81-6.81s-6.81,3.05-6.81,6.81c0,2.49,1.33,4.66,3.31,5.85v21.45h-.06c-3.59,0-7.12-.23-10.59-.67l-.44-27.28c.05-1.07.06-5.6-2.9-8.77-1.25-1.34-3.52-2.94-7.24-2.94-2.39,0-3.64-1-3.72-2.9v-18.86c8.99,9.68,21.81,15.75,35.97,15.75,6.76,0,12.9-2.75,17.36-7.21s7.24-10.61,7.24-17.39c0-5.82-2.07-11.19-5.51-15.43,3.44-4.23,5.51-9.6,5.51-15.47,0-13.52-11.08-24.57-24.6-24.57h-49.17c0,11.67,4.11,22.43,10.99,30.9h-10.99c0,8.62,2.25,16.74,6.2,23.81v28.47c0,3.98,2.86,9.9,10.72,9.9,1.3,0,1.82.4,2.11.7.96,1.01,1.07,3.08,1.04,3.7v.15s.41,26.23.41,26.23c-6.77-1.47-13.24-3.76-19.28-6.78v-39.48c1.98-1.18,3.31-3.35,3.31-5.83,0-3.76-3.05-6.81-6.81-6.81s-6.81,3.05-6.81,6.81c0,2.48,1.33,4.65,3.31,5.83v35.56c-2.27-1.41-4.47-2.94-6.59-4.57l.65-83.78c.03-3.1.04-6.21.05-9.31.02-5.34.04-10.85.13-16.26.06-3.62.6-6.24,1.71-8.24,2.19-3.95,6.91-5.88,14.41-5.88h6.93c1.18,1.98,3.35,3.31,5.83,3.31,3.76,0,6.81-3.05,6.81-6.81s-3.05-6.81-6.81-6.81c-2.48,0-4.65,1.33-5.83,3.31h-6.93c-10.13,0-17.04,3.19-20.53,9.48-2.22,4-2.54,8.5-2.59,11.53-.09,5.45-.11,10.99-.13,16.34-.01,3.1-.02,6.2-.05,9.29l-.6,77.85c-2.19-2.09-4.26-4.31-6.21-6.63h.32v-78.56c1.98-1.19,3.31-3.36,3.31-5.84,0-3.76-3.05-6.81-6.81-6.81s-6.81,3.05-6.81,6.81c0,2.48,1.33,4.65,3.31,5.84v69.39c-8.06-12.79-12.72-27.92-12.72-44.12,0-45.79,37.25-83.05,83.04-83.05s83.05,37.26,83.05,83.05c0,15.37-4.2,29.78-11.51,42.14v-56.88c1.98-1.19,3.31-3.36,3.31-5.84,0-3.76-3.05-6.81-6.81-6.81Z"/>
    <g>
      <path class="cls-12" d="M202.93,69.77c-49.65,0-90.04,40.4-90.04,90.05s40.39,90.05,90.04,90.05,90.05-40.39,90.05-90.05-40.39-90.05-90.05-90.05ZM270.97,132.43c-3.76,0-6.81,3.05-6.81,6.81,0,2.48,1.33,4.65,3.31,5.84v66.95c-10.5,12.96-24.82,22.7-41.23,27.51v-17.04c0-1.29.22-4.49,2.31-6.26,1.58-1.33,4.15-1.77,6.44-2.03,4.88-.54,11.96-1.89,17.08-7.37,6.35-6.79,6.34-15.58,6.34-23.34v-57.66c.03-1.14.19-12.7-6.14-19.26-2.88-3-6.59-4.52-11-4.52h-18.86c-1.19-1.98-3.36-3.31-5.84-3.31-3.76,0-6.81,3.05-6.81,6.81s3.05,6.82,6.81,6.82c2.48,0,4.66-1.33,5.84-3.32h18.86c2.47,0,4.42.78,5.95,2.36,3.7,3.83,4.28,11.58,4.19,14.24v57.84c0,7.09,0,13.79-4.45,18.56-2.73,2.92-6.66,4.52-12.74,5.19-3.34.38-7.17,1.1-10.18,3.64-3.1,2.61-4.8,6.74-4.8,11.61v18.76c-3.03.61-6.11,1.05-9.25,1.31v-21.15c1.98-1.19,3.31-3.36,3.31-5.85,0-3.76-3.05-6.81-6.81-6.81s-6.81,3.05-6.81,6.81c0,2.49,1.33,4.66,3.31,5.85v21.45h-.06c-3.59,0-7.12-.23-10.59-.67l-.44-27.28c.05-1.07.06-5.6-2.9-8.77-1.25-1.34-3.52-2.94-7.24-2.94-2.39,0-3.64-1-3.72-2.9v-18.86c8.99,9.68,21.81,15.75,35.97,15.75,6.76,0,12.9-2.75,17.36-7.21s7.24-10.61,7.24-17.39c0-5.82-2.07-11.19-5.51-15.43,3.44-4.23,5.51-9.6,5.51-15.47,0-13.52-11.08-24.57-24.6-24.57h-49.17c0,11.67,4.11,22.43,10.99,30.9h-10.99c0,8.62,2.25,16.74,6.2,23.81v28.47c0,3.98,2.86,9.9,10.72,9.9,1.3,0,1.82.4,2.11.7.96,1.01,1.07,3.08,1.04,3.7v.15s.41,26.23.41,26.23c-6.77-1.47-13.24-3.76-19.28-6.78v-39.48c1.98-1.18,3.31-3.35,3.31-5.83,0-3.76-3.05-6.81-6.81-6.81s-6.81,3.05-6.81,6.81c0,2.48,1.33,4.65,3.31,5.83v35.56c-2.27-1.41-4.47-2.94-6.59-4.57l.65-83.78c.03-3.1.04-6.21.05-9.31.02-5.34.04-10.85.13-16.26.06-3.62.6-6.24,1.71-8.24,2.19-3.95,6.91-5.88,14.41-5.88h6.93c1.18,1.98,3.35,3.31,5.83,3.31,3.76,0,6.81-3.05,6.81-6.81s-3.05-6.81-6.81-6.81c-2.48,0-4.65,1.33-5.83,3.31h-6.93c-10.13,0-17.04,3.19-20.53,9.48-2.22,4-2.54,8.5-2.59,11.53-.09,5.45-.11,10.99-.13,16.34-.01,3.1-.02,6.2-.05,9.29l-.6,77.85c-2.19-2.09-4.26-4.31-6.21-6.63h.32v-78.56c1.98-1.19,3.31-3.36,3.31-5.84,0-3.76-3.05-6.81-6.81-6.81s-6.81,3.05-6.81,6.81c0,2.48,1.33,4.65,3.31,5.84v69.39c-8.06-12.79-12.72-27.92-12.72-44.12,0-45.79,37.25-83.05,83.04-83.05s83.05,37.26,83.05,83.05c0,15.37-4.2,29.78-11.51,42.14v-56.88c1.98-1.19,3.31-3.36,3.31-5.84,0-3.76-3.05-6.81-6.81-6.81Z"/>
      <path class="cls-4" d="M202.65,69.49c-49.65,0-90.04,40.4-90.04,90.05s40.39,90.05,90.04,90.05,90.05-40.39,90.05-90.05-40.39-90.05-90.05-90.05ZM270.69,132.15c-3.76,0-6.81,3.05-6.81,6.81,0,2.48,1.33,4.65,3.31,5.84v66.95c-10.5,12.96-24.82,22.7-41.23,27.51v-17.04c0-1.29.22-4.49,2.31-6.26,1.58-1.33,4.15-1.77,6.44-2.03,4.88-.54,11.96-1.89,17.08-7.37,6.35-6.79,6.34-15.58,6.34-23.34v-57.66c.03-1.14.19-12.7-6.14-19.26-2.88-3-6.59-4.52-11-4.52h-18.86c-1.19-1.98-3.36-3.31-5.84-3.31-3.76,0-6.81,3.05-6.81,6.81s3.05,6.82,6.81,6.82c2.48,0,4.66-1.33,5.84-3.32h18.86c2.47,0,4.42.78,5.95,2.36,3.7,3.83,4.28,11.58,4.19,14.24v57.84c0,7.09,0,13.79-4.45,18.56-2.73,2.92-6.66,4.52-12.74,5.19-3.34.38-7.17,1.1-10.18,3.64-3.1,2.61-4.8,6.74-4.8,11.61v18.76c-3.03.61-6.11,1.05-9.25,1.31v-21.15c1.98-1.19,3.31-3.36,3.31-5.85,0-3.76-3.05-6.81-6.81-6.81s-6.81,3.05-6.81,6.81c0,2.49,1.33,4.66,3.31,5.85v21.45h-.06c-3.59,0-7.12-.23-10.59-.67l-.44-27.28c.05-1.07.06-5.6-2.9-8.77-1.25-1.34-3.52-2.94-7.24-2.94-2.39,0-3.64-1-3.72-2.9v-18.86c8.99,9.68,21.81,15.75,35.97,15.75,6.76,0,12.9-2.75,17.36-7.21s7.24-10.61,7.24-17.39c0-5.82-2.07-11.19-5.51-15.43,3.44-4.23,5.51-9.6,5.51-15.47,0-13.52-11.08-24.57-24.6-24.57h-49.17c0,11.67,4.11,22.43,10.99,30.9h-10.99c0,8.62,2.25,16.74,6.2,23.81v28.47c0,3.98,2.86,9.9,10.72,9.9,1.3,0,1.82.4,2.11.7.96,1.01,1.07,3.08,1.04,3.7v.15s.41,26.23.41,26.23c-6.77-1.47-13.24-3.76-19.28-6.78v-39.48c1.98-1.18,3.31-3.35,3.31-5.83,0-3.76-3.05-6.81-6.81-6.81s-6.81,3.05-6.81,6.81c0,2.48,1.33,4.65,3.31,5.83v35.56c-2.27-1.41-4.47-2.94-6.59-4.57l.65-83.78c.03-3.1.04-6.21.05-9.31.02-5.34.04-10.85.13-16.26.06-3.62.6-6.24,1.71-8.24,2.19-3.95,6.91-5.88,14.41-5.88h6.93c1.18,1.98,3.35,3.31,5.83,3.31,3.76,0,6.81-3.05,6.81-6.81s-3.05-6.81-6.81-6.81c-2.48,0-4.65,1.33-5.83,3.31h-6.93c-10.13,0-17.04,3.19-20.53,9.48-2.22,4-2.54,8.5-2.59,11.53-.09,5.45-.11,10.99-.13,16.34-.01,3.1-.02,6.2-.05,9.29l-.6,77.85c-2.19-2.09-4.26-4.31-6.21-6.63h.32v-78.56c1.98-1.19,3.31-3.36,3.31-5.84,0-3.76-3.05-6.81-6.81-6.81s-6.81,3.05-6.81,6.81c0,2.48,1.33,4.65,3.31,5.84v69.39c-8.06-12.79-12.72-27.92-12.72-44.12,0-45.79,37.25-83.05,83.04-83.05s83.05,37.26,83.05,83.05c0,15.37-4.2,29.78-11.51,42.14v-56.88c1.98-1.19,3.31-3.36,3.31-5.84,0-3.76-3.05-6.81-6.81-6.81Z"/>
      <path class="cls-5" d="M202.36,69.2c-49.65,0-90.04,40.4-90.04,90.05s40.39,90.05,90.04,90.05,90.05-40.39,90.05-90.05-40.39-90.05-90.05-90.05ZM270.4,131.86c-3.76,0-6.81,3.05-6.81,6.81,0,2.48,1.33,4.65,3.31,5.84v66.95c-10.5,12.96-24.82,22.7-41.23,27.51v-17.04c0-1.29.22-4.49,2.31-6.26,1.58-1.33,4.15-1.77,6.44-2.03,4.88-.54,11.96-1.89,17.08-7.37,6.35-6.79,6.34-15.58,6.34-23.34v-57.66c.03-1.14.19-12.7-6.14-19.26-2.88-3-6.59-4.52-11-4.52h-18.86c-1.19-1.98-3.36-3.31-5.84-3.31-3.76,0-6.81,3.05-6.81,6.81s3.05,6.82,6.81,6.82c2.48,0,4.66-1.33,5.84-3.32h18.86c2.47,0,4.42.78,5.95,2.36,3.7,3.83,4.28,11.58,4.19,14.24v57.84c0,7.09,0,13.79-4.45,18.56-2.73,2.92-6.66,4.52-12.74,5.19-3.34.38-7.17,1.1-10.18,3.64-3.1,2.61-4.8,6.74-4.8,11.61v18.76c-3.03.61-6.11,1.05-9.25,1.31v-21.15c1.98-1.19,3.31-3.36,3.31-5.85,0-3.76-3.05-6.81-6.81-6.81s-6.81,3.05-6.81,6.81c0,2.49,1.33,4.66,3.31,5.85v21.45h-.06c-3.59,0-7.12-.23-10.59-.67l-.44-27.28c.05-1.07.06-5.6-2.9-8.77-1.25-1.34-3.52-2.94-7.24-2.94-2.39,0-3.64-1-3.72-2.9v-18.86c8.99,9.68,21.81,15.75,35.97,15.75,6.76,0,12.9-2.75,17.36-7.21s7.24-10.61,7.24-17.39c0-5.82-2.07-11.19-5.51-15.43,3.44-4.23,5.51-9.6,5.51-15.47,0-13.52-11.08-24.57-24.6-24.57h-49.17c0,11.67,4.11,22.43,10.99,30.9h-10.99c0,8.62,2.25,16.74,6.2,23.81v28.47c0,3.98,2.86,9.9,10.72,9.9,1.3,0,1.82.4,2.11.7.96,1.01,1.07,3.08,1.04,3.7v.15s.41,26.23.41,26.23c-6.77-1.47-13.24-3.76-19.28-6.78v-39.48c1.98-1.18,3.31-3.35,3.31-5.83,0-3.76-3.05-6.81-6.81-6.81s-6.81,3.05-6.81,6.81c0,2.48,1.33,4.65,3.31,5.83v35.56c-2.27-1.41-4.47-2.94-6.59-4.57l.65-83.78c.03-3.1.04-6.21.05-9.31.02-5.34.04-10.85.13-16.26.06-3.62.6-6.24,1.71-8.24,2.19-3.95,6.91-5.88,14.41-5.88h6.93c1.18,1.98,3.35,3.31,5.83,3.31,3.76,0,6.81-3.05,6.81-6.81s-3.05-6.81-6.81-6.81c-2.48,0-4.65,1.33-5.83,3.31h-6.93c-10.13,0-17.04,3.19-20.53,9.48-2.22,4-2.54,8.5-2.59,11.53-.09,5.45-.11,10.99-.13,16.34-.01,3.1-.02,6.2-.05,9.29l-.6,77.85c-2.19-2.09-4.26-4.31-6.21-6.63h.32v-78.56c1.98-1.19,3.31-3.36,3.31-5.84,0-3.76-3.05-6.81-6.81-6.81s-6.81,3.05-6.81,6.81c0,2.48,1.33,4.65,3.31,5.84v69.39c-8.06-12.79-12.72-27.92-12.72-44.12,0-45.79,37.25-83.05,83.04-83.05s83.05,37.26,83.05,83.05c0,15.37-4.2,29.78-11.51,42.14v-56.88c1.98-1.19,3.31-3.36,3.31-5.84,0-3.76-3.05-6.81-6.81-6.81Z"/>
      <path class="cls-8" d="M202.08,68.92c-49.65,0-90.04,40.4-90.04,90.05s40.39,90.05,90.04,90.05,90.05-40.39,90.05-90.05-40.39-90.05-90.05-90.05ZM270.12,131.58c-3.76,0-6.81,3.05-6.81,6.81,0,2.48,1.33,4.65,3.31,5.84v66.95c-10.5,12.96-24.82,22.7-41.23,27.51v-17.04c0-1.29.22-4.49,2.31-6.26,1.58-1.33,4.15-1.77,6.44-2.03,4.88-.54,11.96-1.89,17.08-7.37,6.35-6.79,6.34-15.58,6.34-23.34v-57.66c.03-1.14.19-12.7-6.14-19.26-2.88-3-6.59-4.52-11-4.52h-18.86c-1.19-1.98-3.36-3.31-5.84-3.31-3.76,0-6.81,3.05-6.81,6.81s3.05,6.82,6.81,6.82c2.48,0,4.66-1.33,5.84-3.32h18.86c2.47,0,4.42.78,5.95,2.36,3.7,3.83,4.28,11.58,4.19,14.24v57.84c0,7.09,0,13.79-4.45,18.56-2.73,2.92-6.66,4.52-12.74,5.19-3.34.38-7.17,1.1-10.18,3.64-3.1,2.61-4.8,6.74-4.8,11.61v18.76c-3.03.61-6.11,1.05-9.25,1.31v-21.15c1.98-1.19,3.31-3.36,3.31-5.85,0-3.76-3.05-6.81-6.81-6.81s-6.81,3.05-6.81,6.81c0,2.49,1.33,4.66,3.31,5.85v21.45h-.06c-3.59,0-7.12-.23-10.59-.67l-.44-27.28c.05-1.07.06-5.6-2.9-8.77-1.25-1.34-3.52-2.94-7.24-2.94-2.39,0-3.64-1-3.72-2.9v-18.86c8.99,9.68,21.81,15.75,35.97,15.75,6.76,0,12.9-2.75,17.36-7.21s7.24-10.61,7.24-17.39c0-5.82-2.07-11.19-5.51-15.43,3.44-4.23,5.51-9.6,5.51-15.47,0-13.52-11.08-24.57-24.6-24.57h-49.17c0,11.67,4.11,22.43,10.99,30.9h-10.99c0,8.62,2.25,16.74,6.2,23.81v28.47c0,3.98,2.86,9.9,10.72,9.9,1.3,0,1.82.4,2.11.7.96,1.01,1.07,3.08,1.04,3.7v.15s.41,26.23.41,26.23c-6.77-1.47-13.24-3.76-19.28-6.78v-39.48c1.98-1.18,3.31-3.35,3.31-5.83,0-3.76-3.05-6.81-6.81-6.81s-6.81,3.05-6.81,6.81c0,2.48,1.33,4.65,3.31,5.83v35.56c-2.27-1.41-4.47-2.94-6.59-4.57l.65-83.78c.03-3.1.04-6.21.05-9.31.02-5.34.04-10.85.13-16.26.06-3.62.6-6.24,1.71-8.24,2.19-3.95,6.91-5.88,14.41-5.88h6.93c1.18,1.98,3.35,3.31,5.83,3.31,3.76,0,6.81-3.05,6.81-6.81s-3.05-6.81-6.81-6.81c-2.48,0-4.65,1.33-5.83,3.31h-6.93c-10.13,0-17.04,3.19-20.53,9.48-2.22,4-2.54,8.5-2.59,11.53-.09,5.45-.11,10.99-.13,16.34-.01,3.1-.02,6.2-.05,9.29l-.6,77.85c-2.19-2.09-4.26-4.31-6.21-6.63h.32v-78.56c1.98-1.19,3.31-3.36,3.31-5.84,0-3.76-3.05-6.81-6.81-6.81s-6.81,3.05-6.81,6.81c0,2.48,1.33,4.65,3.31,5.84v69.39c-8.06-12.79-12.72-27.92-12.72-44.12,0-45.79,37.25-83.05,83.04-83.05s83.05,37.26,83.05,83.05c0,15.37-4.2,29.78-11.51,42.14v-56.88c1.98-1.19,3.31-3.36,3.31-5.84,0-3.76-3.05-6.81-6.81-6.81Z"/>
      <path class="cls-6" d="M201.8,68.64c-49.65,0-90.04,40.4-90.04,90.05s40.39,90.05,90.04,90.05,90.05-40.39,90.05-90.05-40.39-90.05-90.05-90.05ZM269.84,131.3c-3.76,0-6.81,3.05-6.81,6.81,0,2.48,1.33,4.65,3.31,5.84v66.95c-10.5,12.96-24.82,22.7-41.23,27.51v-17.04c0-1.29.22-4.49,2.31-6.26,1.58-1.33,4.15-1.77,6.44-2.03,4.88-.54,11.96-1.89,17.08-7.37,6.35-6.79,6.34-15.58,6.34-23.34v-57.66c.03-1.14.19-12.7-6.14-19.26-2.88-3-6.59-4.52-11-4.52h-18.86c-1.19-1.98-3.36-3.31-5.84-3.31-3.76,0-6.81,3.05-6.81,6.81s3.05,6.82,6.81,6.82c2.48,0,4.66-1.33,5.84-3.32h18.86c2.47,0,4.42.78,5.95,2.36,3.7,3.83,4.28,11.58,4.19,14.24v57.84c0,7.09,0,13.79-4.45,18.56-2.73,2.92-6.66,4.52-12.74,5.19-3.34.38-7.17,1.1-10.18,3.64-3.1,2.61-4.8,6.74-4.8,11.61v18.76c-3.03.61-6.11,1.05-9.25,1.31v-21.15c1.98-1.19,3.31-3.36,3.31-5.85,0-3.76-3.05-6.81-6.81-6.81s-6.81,3.05-6.81,6.81c0,2.49,1.33,4.66,3.31,5.85v21.45h-.06c-3.59,0-7.12-.23-10.59-.67l-.44-27.28c.05-1.07.06-5.6-2.9-8.77-1.25-1.34-3.52-2.94-7.24-2.94-2.39,0-3.64-1-3.72-2.9v-18.86c8.99,9.68,21.81,15.75,35.97,15.75,6.76,0,12.9-2.75,17.36-7.21s7.24-10.61,7.24-17.39c0-5.82-2.07-11.19-5.51-15.43,3.44-4.23,5.51-9.6,5.51-15.47,0-13.52-11.08-24.57-24.6-24.57h-49.17c0,11.67,4.11,22.43,10.99,30.9h-10.99c0,8.62,2.25,16.74,6.2,23.81v28.47c0,3.98,2.86,9.9,10.72,9.9,1.3,0,1.82.4,2.11.7.96,1.01,1.07,3.08,1.04,3.7v.15s.41,26.23.41,26.23c-6.77-1.47-13.24-3.76-19.28-6.78v-39.48c1.98-1.18,3.31-3.35,3.31-5.83,0-3.76-3.05-6.81-6.81-6.81s-6.81,3.05-6.81,6.81c0,2.48,1.33,4.65,3.31,5.83v35.56c-2.27-1.41-4.47-2.94-6.59-4.57l.65-83.78c.03-3.1.04-6.21.05-9.31.02-5.34.04-10.85.13-16.26.06-3.62.6-6.24,1.71-8.24,2.19-3.95,6.91-5.88,14.41-5.88h6.93c1.18,1.98,3.35,3.31,5.83,3.31,3.76,0,6.81-3.05,6.81-6.81s-3.05-6.81-6.81-6.81c-2.48,0-4.65,1.33-5.83,3.31h-6.93c-10.13,0-17.04,3.19-20.53,9.48-2.22,4-2.54,8.5-2.59,11.53-.09,5.45-.11,10.99-.13,16.34-.01,3.1-.02,6.2-.05,9.29l-.6,77.85c-2.19-2.09-4.26-4.31-6.21-6.63h.32v-78.56c1.98-1.19,3.31-3.36,3.31-5.84,0-3.76-3.05-6.81-6.81-6.81s-6.81,3.05-6.81,6.81c0,2.48,1.33,4.65,3.31,5.84v69.39c-8.06-12.79-12.72-27.92-12.72-44.12,0-45.79,37.25-83.05,83.04-83.05s83.05,37.26,83.05,83.05c0,15.37-4.2,29.78-11.51,42.14v-56.88c1.98-1.19,3.31-3.36,3.31-5.84,0-3.76-3.05-6.81-6.81-6.81Z"/>
      <path class="cls-7" d="M201.51,68.35c-49.65,0-90.04,40.4-90.04,90.05s40.39,90.05,90.04,90.05,90.05-40.39,90.05-90.05-40.39-90.05-90.05-90.05ZM269.55,131.01c-3.76,0-6.81,3.05-6.81,6.81,0,2.48,1.33,4.65,3.31,5.84v66.95c-10.5,12.96-24.82,22.7-41.23,27.51v-17.04c0-1.29.22-4.49,2.31-6.26,1.58-1.33,4.15-1.77,6.44-2.03,4.88-.54,11.96-1.89,17.08-7.37,6.35-6.79,6.34-15.58,6.34-23.34v-57.66c.03-1.14.19-12.7-6.14-19.26-2.88-3-6.59-4.52-11-4.52h-18.86c-1.19-1.98-3.36-3.31-5.84-3.31-3.76,0-6.81,3.05-6.81,6.81s3.05,6.82,6.81,6.82c2.48,0,4.66-1.33,5.84-3.32h18.86c2.47,0,4.42.78,5.95,2.36,3.7,3.83,4.28,11.58,4.19,14.24v57.84c0,7.09,0,13.79-4.45,18.56-2.73,2.92-6.66,4.52-12.74,5.19-3.34.38-7.17,1.1-10.18,3.64-3.1,2.61-4.8,6.74-4.8,11.61v18.76c-3.03.61-6.11,1.05-9.25,1.31v-21.15c1.98-1.19,3.31-3.36,3.31-5.85,0-3.76-3.05-6.81-6.81-6.81s-6.81,3.05-6.81,6.81c0,2.49,1.33,4.66,3.31,5.85v21.45h-.06c-3.59,0-7.12-.23-10.59-.67l-.44-27.28c.05-1.07.06-5.6-2.9-8.77-1.25-1.34-3.52-2.94-7.24-2.94-2.39,0-3.64-1-3.72-2.9v-18.86c8.99,9.68,21.81,15.75,35.97,15.75,6.76,0,12.9-2.75,17.36-7.21s7.24-10.61,7.24-17.39c0-5.82-2.07-11.19-5.51-15.43,3.44-4.23,5.51-9.6,5.51-15.47,0-13.52-11.08-24.57-24.6-24.57h-49.17c0,11.67,4.11,22.43,10.99,30.9h-10.99c0,8.62,2.25,16.74,6.2,23.81v28.47c0,3.98,2.86,9.9,10.72,9.9,1.3,0,1.82.4,2.11.7.96,1.01,1.07,3.08,1.04,3.7v.15s.41,26.23.41,26.23c-6.77-1.47-13.24-3.76-19.28-6.78v-39.48c1.98-1.18,3.31-3.35,3.31-5.83,0-3.76-3.05-6.81-6.81-6.81s-6.81,3.05-6.81,6.81c0,2.48,1.33,4.65,3.31,5.83v35.56c-2.27-1.41-4.47-2.94-6.59-4.57l.65-83.78c.03-3.1.04-6.21.05-9.31.02-5.34.04-10.85.13-16.26.06-3.62.6-6.24,1.71-8.24,2.19-3.95,6.91-5.88,14.41-5.88h6.93c1.18,1.98,3.35,3.31,5.83,3.31,3.76,0,6.81-3.05,6.81-6.81s-3.05-6.81-6.81-6.81c-2.48,0-4.65,1.33-5.83,3.31h-6.93c-10.13,0-17.04,3.19-20.53,9.48-2.22,4-2.54,8.5-2.59,11.53-.09,5.45-.11,10.99-.13,16.34-.01,3.1-.02,6.2-.05,9.29l-.6,77.85c-2.19-2.09-4.26-4.31-6.21-6.63h.32v-78.56c1.98-1.19,3.31-3.36,3.31-5.84,0-3.76-3.05-6.81-6.81-6.81s-6.81,3.05-6.81,6.81c0,2.48,1.33,4.65,3.31,5.84v69.39c-8.06-12.79-12.72-27.92-12.72-44.12,0-45.79,37.25-83.05,83.04-83.05s83.05,37.26,83.05,83.05c0,15.37-4.2,29.78-11.51,42.14v-56.88c1.98-1.19,3.31-3.36,3.31-5.84,0-3.76-3.05-6.81-6.81-6.81Z"/>
      <path class="cls-9" d="M201.23,68.07c-49.65,0-90.04,40.4-90.04,90.05s40.39,90.05,90.04,90.05,90.05-40.39,90.05-90.05-40.39-90.05-90.05-90.05ZM269.27,130.73c-3.76,0-6.81,3.05-6.81,6.81,0,2.48,1.33,4.65,3.31,5.84v66.95c-10.5,12.96-24.82,22.7-41.23,27.51v-17.04c0-1.29.22-4.49,2.31-6.26,1.58-1.33,4.15-1.77,6.44-2.03,4.88-.54,11.96-1.89,17.08-7.37,6.35-6.79,6.34-15.58,6.34-23.34v-57.66c.03-1.14.19-12.7-6.14-19.26-2.88-3-6.59-4.52-11-4.52h-18.86c-1.19-1.98-3.36-3.31-5.84-3.31-3.76,0-6.81,3.05-6.81,6.81s3.05,6.82,6.81,6.82c2.48,0,4.66-1.33,5.84-3.32h18.86c2.47,0,4.42.78,5.95,2.36,3.7,3.83,4.28,11.58,4.19,14.24v57.84c0,7.09,0,13.79-4.45,18.56-2.73,2.92-6.66,4.52-12.74,5.19-3.34.38-7.17,1.1-10.18,3.64-3.1,2.61-4.8,6.74-4.8,11.61v18.76c-3.03.61-6.11,1.05-9.25,1.31v-21.15c1.98-1.19,3.31-3.36,3.31-5.85,0-3.76-3.05-6.81-6.81-6.81s-6.81,3.05-6.81,6.81c0,2.49,1.33,4.66,3.31,5.85v21.45h-.06c-3.59,0-7.12-.23-10.59-.67l-.44-27.28c.05-1.07.06-5.6-2.9-8.77-1.25-1.34-3.52-2.94-7.24-2.94-2.39,0-3.64-1-3.72-2.9v-18.86c8.99,9.68,21.81,15.75,35.97,15.75,6.76,0,12.9-2.75,17.36-7.21s7.24-10.61,7.24-17.39c0-5.82-2.07-11.19-5.51-15.43,3.44-4.23,5.51-9.6,5.51-15.47,0-13.52-11.08-24.57-24.6-24.57h-49.17c0,11.67,4.11,22.43,10.99,30.9h-10.99c0,8.62,2.25,16.74,6.2,23.81v28.47c0,3.98,2.86,9.9,10.72,9.9,1.3,0,1.82.4,2.11.7.96,1.01,1.07,3.08,1.04,3.7v.15s.41,26.23.41,26.23c-6.77-1.47-13.24-3.76-19.28-6.78v-39.48c1.98-1.18,3.31-3.35,3.31-5.83,0-3.76-3.05-6.81-6.81-6.81s-6.81,3.05-6.81,6.81c0,2.48,1.33,4.65,3.31,5.83v35.56c-2.27-1.41-4.47-2.94-6.59-4.57l.65-83.78c.03-3.1.04-6.21.05-9.31.02-5.34.04-10.85.13-16.26.06-3.62.6-6.24,1.71-8.24,2.19-3.95,6.91-5.88,14.41-5.88h6.93c1.18,1.98,3.35,3.31,5.83,3.31,3.76,0,6.81-3.05,6.81-6.81s-3.05-6.81-6.81-6.81c-2.48,0-4.65,1.33-5.83,3.31h-6.93c-10.13,0-17.04,3.19-20.53,9.48-2.22,4-2.54,8.5-2.59,11.53-.09,5.45-.11,10.99-.13,16.34-.01,3.1-.02,6.2-.05,9.29l-.6,77.85c-2.19-2.09-4.26-4.31-6.21-6.63h.32v-78.56c1.98-1.19,3.31-3.36,3.31-5.84,0-3.76-3.05-6.81-6.81-6.81s-6.81,3.05-6.81,6.81c0,2.48,1.33,4.65,3.31,5.84v69.39c-8.06-12.79-12.72-27.92-12.72-44.12,0-45.79,37.25-83.05,83.04-83.05s83.05,37.26,83.05,83.05c0,15.37-4.2,29.78-11.51,42.14v-56.88c1.98-1.19,3.31-3.36,3.31-5.84,0-3.76-3.05-6.81-6.81-6.81Z"/>
      <path class="cls-3" d="M200.95,67.79c-49.65,0-90.04,40.4-90.04,90.05s40.39,90.05,90.04,90.05,90.05-40.39,90.05-90.05-40.39-90.05-90.05-90.05ZM268.99,130.45c-3.76,0-6.81,3.05-6.81,6.81,0,2.48,1.33,4.65,3.31,5.84v66.95c-10.5,12.96-24.82,22.7-41.23,27.51v-17.04c0-1.29.22-4.49,2.31-6.26,1.58-1.33,4.15-1.77,6.44-2.03,4.88-.54,11.96-1.89,17.08-7.37,6.35-6.79,6.34-15.58,6.34-23.34v-57.66c.03-1.14.19-12.7-6.14-19.26-2.88-3-6.59-4.52-11-4.52h-18.86c-1.19-1.98-3.36-3.31-5.84-3.31-3.76,0-6.81,3.05-6.81,6.81s3.05,6.82,6.81,6.82c2.48,0,4.66-1.33,5.84-3.32h18.86c2.47,0,4.42.78,5.95,2.36,3.7,3.83,4.28,11.58,4.19,14.24v57.84c0,7.09,0,13.79-4.45,18.56-2.73,2.92-6.66,4.52-12.74,5.19-3.34.38-7.17,1.1-10.18,3.64-3.1,2.61-4.8,6.74-4.8,11.61v18.76c-3.03.61-6.11,1.05-9.25,1.31v-21.15c1.98-1.19,3.31-3.36,3.31-5.85,0-3.76-3.05-6.81-6.81-6.81s-6.81,3.05-6.81,6.81c0,2.49,1.33,4.66,3.31,5.85v21.45h-.06c-3.59,0-7.12-.23-10.59-.67l-.44-27.28c.05-1.07.06-5.6-2.9-8.77-1.25-1.34-3.52-2.94-7.24-2.94-2.39,0-3.64-1-3.72-2.9v-18.86c8.99,9.68,21.81,15.75,35.97,15.75,6.76,0,12.9-2.75,17.36-7.21s7.24-10.61,7.24-17.39c0-5.82-2.07-11.19-5.51-15.43,3.44-4.23,5.51-9.6,5.51-15.47,0-13.52-11.08-24.57-24.6-24.57h-49.17c0,11.67,4.11,22.43,10.99,30.9h-10.99c0,8.62,2.25,16.74,6.2,23.81v28.47c0,3.98,2.86,9.9,10.72,9.9,1.3,0,1.82.4,2.11.7.96,1.01,1.07,3.08,1.04,3.7v.15s.41,26.23.41,26.23c-6.77-1.47-13.24-3.76-19.28-6.78v-39.48c1.98-1.18,3.31-3.35,3.31-5.83,0-3.76-3.05-6.81-6.81-6.81s-6.81,3.05-6.81,6.81c0,2.48,1.33,4.65,3.31,5.83v35.56c-2.27-1.41-4.47-2.94-6.59-4.57l.65-83.78c.03-3.1.04-6.21.05-9.31.02-5.34.04-10.85.13-16.26.06-3.62.6-6.24,1.71-8.24,2.19-3.95,6.91-5.88,14.41-5.88h6.93c1.18,1.98,3.35,3.31,5.83,3.31,3.76,0,6.81-3.05,6.81-6.81s-3.05-6.81-6.81-6.81c-2.48,0-4.65,1.33-5.83,3.31h-6.93c-10.13,0-17.04,3.19-20.53,9.48-2.22,4-2.54,8.5-2.59,11.53-.09,5.45-.11,10.99-.13,16.34-.01,3.1-.02,6.2-.05,9.29l-.6,77.85c-2.19-2.09-4.26-4.31-6.21-6.63h.32v-78.56c1.98-1.19,3.31-3.36,3.31-5.84,0-3.76-3.05-6.81-6.81-6.81s-6.81,3.05-6.81,6.81c0,2.48,1.33,4.65,3.31,5.84v69.39c-8.06-12.79-12.72-27.92-12.72-44.12,0-45.79,37.25-83.05,83.04-83.05s83.05,37.26,83.05,83.05c0,15.37-4.2,29.78-11.51,42.14v-56.88c1.98-1.19,3.31-3.36,3.31-5.84,0-3.76-3.05-6.81-6.81-6.81Z"/>
      <path class="cls-2" d="M200.66,67.5c-49.65,0-90.04,40.4-90.04,90.05s40.39,90.05,90.04,90.05,90.05-40.39,90.05-90.05-40.39-90.05-90.05-90.05ZM268.7,130.16c-3.76,0-6.81,3.05-6.81,6.81,0,2.48,1.33,4.65,3.31,5.84v66.95c-10.5,12.96-24.82,22.7-41.23,27.51v-17.04c0-1.29.22-4.49,2.31-6.26,1.58-1.33,4.15-1.77,6.44-2.03,4.88-.54,11.96-1.89,17.08-7.37,6.35-6.79,6.34-15.58,6.34-23.34v-57.66c.03-1.14.19-12.7-6.14-19.26-2.88-3-6.59-4.52-11-4.52h-18.86c-1.19-1.98-3.36-3.31-5.84-3.31-3.76,0-6.81,3.05-6.81,6.81s3.05,6.82,6.81,6.82c2.48,0,4.66-1.33,5.84-3.32h18.86c2.47,0,4.42.78,5.95,2.36,3.7,3.83,4.28,11.58,4.19,14.24v57.84c0,7.09,0,13.79-4.45,18.56-2.73,2.92-6.66,4.52-12.74,5.19-3.34.38-7.17,1.1-10.18,3.64-3.1,2.61-4.8,6.74-4.8,11.61v18.76c-3.03.61-6.11,1.05-9.25,1.31v-21.15c1.98-1.19,3.31-3.36,3.31-5.85,0-3.76-3.05-6.81-6.81-6.81s-6.81,3.05-6.81,6.81c0,2.49,1.33,4.66,3.31,5.85v21.45h-.06c-3.59,0-7.12-.23-10.59-.67l-.44-27.28c.05-1.07.06-5.6-2.9-8.77-1.25-1.34-3.52-2.94-7.24-2.94-2.39,0-3.64-1-3.72-2.9v-18.86c8.99,9.68,21.81,15.75,35.97,15.75,6.76,0,12.9-2.75,17.36-7.21s7.24-10.61,7.24-17.39c0-5.82-2.07-11.19-5.51-15.43,3.44-4.23,5.51-9.6,5.51-15.47,0-13.52-11.08-24.57-24.6-24.57h-49.17c0,11.67,4.11,22.43,10.99,30.9h-10.99c0,8.62,2.25,16.74,6.2,23.81v28.47c0,3.98,2.86,9.9,10.72,9.9,1.3,0,1.82.4,2.11.7.96,1.01,1.07,3.08,1.04,3.7v.15s.41,26.23.41,26.23c-6.77-1.47-13.24-3.76-19.28-6.78v-39.48c1.98-1.18,3.31-3.35,3.31-5.83,0-3.76-3.05-6.81-6.81-6.81s-6.81,3.05-6.81,6.81c0,2.48,1.33,4.65,3.31,5.83v35.56c-2.27-1.41-4.47-2.94-6.59-4.57l.65-83.78c.03-3.1.04-6.21.05-9.31.02-5.34.04-10.85.13-16.26.06-3.62.6-6.24,1.71-8.24,2.19-3.95,6.91-5.88,14.41-5.88h6.93c1.18,1.98,3.35,3.31,5.83,3.31,3.76,0,6.81-3.05,6.81-6.81s-3.05-6.81-6.81-6.81c-2.48,0-4.65,1.33-5.83,3.31h-6.93c-10.13,0-17.04,3.19-20.53,9.48-2.22,4-2.54,8.5-2.59,11.53-.09,5.45-.11,10.99-.13,16.34-.01,3.1-.02,6.2-.05,9.29l-.6,77.85c-2.19-2.09-4.26-4.31-6.21-6.63h.32v-78.56c1.98-1.19,3.31-3.36,3.31-5.84,0-3.76-3.05-6.81-6.81-6.81s-6.81,3.05-6.81,6.81c0,2.48,1.33,4.65,3.31,5.84v69.39c-8.06-12.79-12.72-27.92-12.72-44.12,0-45.79,37.25-83.05,83.04-83.05s83.05,37.26,83.05,83.05c0,15.37-4.2,29.78-11.51,42.14v-56.88c1.98-1.19,3.31-3.36,3.31-5.84,0-3.76-3.05-6.81-6.81-6.81Z"/>
      <path class="cls-13" d="M200.38,67.22c-49.65,0-90.04,40.4-90.04,90.05s40.39,90.05,90.04,90.05,90.05-40.39,90.05-90.05-40.39-90.05-90.05-90.05ZM268.42,129.88c-3.76,0-6.81,3.05-6.81,6.81,0,2.48,1.33,4.65,3.31,5.84v66.95c-10.5,12.96-24.82,22.7-41.23,27.51v-17.04c0-1.29.22-4.49,2.31-6.26,1.58-1.33,4.15-1.77,6.44-2.03,4.88-.54,11.96-1.89,17.08-7.37,6.35-6.79,6.34-15.58,6.34-23.34v-57.66c.03-1.14.19-12.7-6.14-19.26-2.88-3-6.59-4.52-11-4.52h-18.86c-1.19-1.98-3.36-3.31-5.84-3.31-3.76,0-6.81,3.05-6.81,6.81s3.05,6.82,6.81,6.82c2.48,0,4.66-1.33,5.84-3.32h18.86c2.47,0,4.42.78,5.95,2.36,3.7,3.83,4.28,11.58,4.19,14.24v57.84c0,7.09,0,13.79-4.45,18.56-2.73,2.92-6.66,4.52-12.74,5.19-3.34.38-7.17,1.1-10.18,3.64-3.1,2.61-4.8,6.74-4.8,11.61v18.76c-3.03.61-6.11,1.05-9.25,1.31v-21.15c1.98-1.19,3.31-3.36,3.31-5.85,0-3.76-3.05-6.81-6.81-6.81s-6.81,3.05-6.81,6.81c0,2.49,1.33,4.66,3.31,5.85v21.45h-.06c-3.59,0-7.12-.23-10.59-.67l-.44-27.28c.05-1.07.06-5.6-2.9-8.77-1.25-1.34-3.52-2.94-7.24-2.94-2.39,0-3.64-1-3.72-2.9v-18.86c8.99,9.68,21.81,15.75,35.97,15.75,6.76,0,12.9-2.75,17.36-7.21s7.24-10.61,7.24-17.39c0-5.82-2.07-11.19-5.51-15.43,3.44-4.23,5.51-9.6,5.51-15.47,0-13.52-11.08-24.57-24.6-24.57h-49.17c0,11.67,4.11,22.43,10.99,30.9h-10.99c0,8.62,2.25,16.74,6.2,23.81v28.47c0,3.98,2.86,9.9,10.72,9.9,1.3,0,1.82.4,2.11.7.96,1.01,1.07,3.08,1.04,3.7v.15s.41,26.23.41,26.23c-6.77-1.47-13.24-3.76-19.28-6.78v-39.48c1.98-1.18,3.31-3.35,3.31-5.83,0-3.76-3.05-6.81-6.81-6.81s-6.81,3.05-6.81,6.81c0,2.48,1.33,4.65,3.31,5.83v35.56c-2.27-1.41-4.47-2.94-6.59-4.57l.65-83.78c.03-3.1.04-6.21.05-9.31.02-5.34.04-10.85.13-16.26.06-3.62.6-6.24,1.71-8.24,2.19-3.95,6.91-5.88,14.41-5.88h6.93c1.18,1.98,3.35,3.31,5.83,3.31,3.76,0,6.81-3.05,6.81-6.81s-3.05-6.81-6.81-6.81c-2.48,0-4.65,1.33-5.83,3.31h-6.93c-10.13,0-17.04,3.19-20.53,9.48-2.22,4-2.54,8.5-2.59,11.53-.09,5.45-.11,10.99-.13,16.34-.01,3.1-.02,6.2-.05,9.29l-.6,77.85c-2.19-2.09-4.26-4.31-6.21-6.63h.32v-78.56c1.98-1.19,3.31-3.36,3.31-5.84,0-3.76-3.05-6.81-6.81-6.81s-6.81,3.05-6.81,6.81c0,2.48,1.33,4.65,3.31,5.84v69.39c-8.06-12.79-12.72-27.92-12.72-44.12,0-45.79,37.25-83.05,83.04-83.05s83.05,37.26,83.05,83.05c0,15.37-4.2,29.78-11.51,42.14v-56.88c1.98-1.19,3.31-3.36,3.31-5.84,0-3.76-3.05-6.81-6.81-6.81Z"/>
      <path class="cls-14" d="M200.1,66.93c-49.65,0-90.04,40.4-90.04,90.05s40.39,90.05,90.04,90.05,90.05-40.39,90.05-90.05-40.39-90.05-90.05-90.05ZM268.14,129.59c-3.76,0-6.81,3.05-6.81,6.81,0,2.48,1.33,4.65,3.31,5.84v66.95c-10.5,12.96-24.82,22.7-41.23,27.51v-17.04c0-1.29.22-4.49,2.31-6.26,1.58-1.33,4.15-1.77,6.44-2.03,4.88-.54,11.96-1.89,17.08-7.37,6.35-6.79,6.34-15.58,6.34-23.34v-57.66c.03-1.14.19-12.7-6.14-19.26-2.88-3-6.59-4.52-11-4.52h-18.86c-1.19-1.98-3.36-3.31-5.84-3.31-3.76,0-6.81,3.05-6.81,6.81s3.05,6.82,6.81,6.82c2.48,0,4.66-1.33,5.84-3.32h18.86c2.47,0,4.42.78,5.95,2.36,3.7,3.83,4.28,11.58,4.19,14.24v57.84c0,7.09,0,13.79-4.45,18.56-2.73,2.92-6.66,4.52-12.74,5.19-3.34.38-7.17,1.1-10.18,3.64-3.1,2.61-4.8,6.74-4.8,11.61v18.76c-3.03.61-6.11,1.05-9.25,1.31v-21.15c1.98-1.19,3.31-3.36,3.31-5.85,0-3.76-3.05-6.81-6.81-6.81s-6.81,3.05-6.81,6.81c0,2.49,1.33,4.66,3.31,5.85v21.45h-.06c-3.59,0-7.12-.23-10.59-.67l-.44-27.28c.05-1.07.06-5.6-2.9-8.77-1.25-1.34-3.52-2.94-7.24-2.94-2.39,0-3.64-1-3.72-2.9v-18.86c8.99,9.68,21.81,15.75,35.97,15.75,6.76,0,12.9-2.75,17.36-7.21s7.24-10.61,7.24-17.39c0-5.82-2.07-11.19-5.51-15.43,3.44-4.23,5.51-9.6,5.51-15.47,0-13.52-11.08-24.57-24.6-24.57h-49.17c0,11.67,4.11,22.43,10.99,30.9h-10.99c0,8.62,2.25,16.74,6.2,23.81v28.47c0,3.98,2.86,9.9,10.72,9.9,1.3,0,1.82.4,2.11.7.96,1.01,1.07,3.08,1.04,3.7v.15s.41,26.23.41,26.23c-6.77-1.47-13.24-3.76-19.28-6.78v-39.48c1.98-1.18,3.31-3.35,3.31-5.83,0-3.76-3.05-6.81-6.81-6.81s-6.81,3.05-6.81,6.81c0,2.48,1.33,4.65,3.31,5.83v35.56c-2.27-1.41-4.47-2.94-6.59-4.57l.65-83.78c.03-3.1.04-6.21.05-9.31.02-5.34.04-10.85.13-16.26.06-3.62.6-6.24,1.71-8.24,2.19-3.95,6.91-5.88,14.41-5.88h6.93c1.18,1.98,3.35,3.31,5.83,3.31,3.76,0,6.81-3.05,6.81-6.81s-3.05-6.81-6.81-6.81c-2.48,0-4.65,1.33-5.83,3.31h-6.93c-10.13,0-17.04,3.19-20.53,9.48-2.22,4-2.54,8.5-2.59,11.53-.09,5.45-.11,10.99-.13,16.34-.01,3.1-.02,6.2-.05,9.29l-.6,77.85c-2.19-2.09-4.26-4.31-6.21-6.63h.32v-78.56c1.98-1.19,3.31-3.36,3.31-5.84,0-3.76-3.05-6.81-6.81-6.81s-6.81,3.05-6.81,6.81c0,2.48,1.33,4.65,3.31,5.84v69.39c-8.06-12.79-12.72-27.92-12.72-44.12,0-45.79,37.25-83.05,83.04-83.05s83.05,37.26,83.05,83.05c0,15.37-4.2,29.78-11.51,42.14v-56.88c1.98-1.19,3.31-3.36,3.31-5.84,0-3.76-3.05-6.81-6.81-6.81Z"/>
    </g>
    <path class="cls-11" d="M200.1,66.93c-49.65,0-90.04,40.4-90.04,90.05s40.39,90.05,90.04,90.05,90.05-40.39,90.05-90.05-40.39-90.05-90.05-90.05ZM268.14,129.59c-3.76,0-6.81,3.05-6.81,6.81,0,2.48,1.33,4.65,3.31,5.84v66.95c-10.5,12.96-24.82,22.7-41.23,27.51v-17.04c0-1.29.22-4.49,2.31-6.26,1.58-1.33,4.15-1.77,6.44-2.03,4.88-.54,11.96-1.89,17.08-7.37,6.35-6.79,6.34-15.58,6.34-23.34v-57.66c.03-1.14.19-12.7-6.14-19.26-2.88-3-6.59-4.52-11-4.52h-18.86c-1.19-1.98-3.36-3.31-5.84-3.31-3.76,0-6.81,3.05-6.81,6.81s3.05,6.82,6.81,6.82c2.48,0,4.66-1.33,5.84-3.32h18.86c2.47,0,4.42.78,5.95,2.36,3.7,3.83,4.28,11.58,4.19,14.24v57.84c0,7.09,0,13.79-4.45,18.56-2.73,2.92-6.66,4.52-12.74,5.19-3.34.38-7.17,1.1-10.18,3.64-3.1,2.61-4.8,6.74-4.8,11.61v18.76c-3.03.61-6.11,1.05-9.25,1.31v-21.15c1.98-1.19,3.31-3.36,3.31-5.85,0-3.76-3.05-6.81-6.81-6.81s-6.81,3.05-6.81,6.81c0,2.49,1.33,4.66,3.31,5.85v21.45h-.06c-3.59,0-7.12-.23-10.59-.67l-.44-27.28c.05-1.07.06-5.6-2.9-8.77-1.25-1.34-3.52-2.94-7.24-2.94-2.39,0-3.64-1-3.72-2.9v-18.86c8.99,9.68,21.81,15.75,35.97,15.75,6.76,0,12.9-2.75,17.36-7.21s7.24-10.61,7.24-17.39c0-5.82-2.07-11.19-5.51-15.43,3.44-4.23,5.51-9.6,5.51-15.47,0-13.52-11.08-24.57-24.6-24.57h-49.17c0,11.67,4.11,22.43,10.99,30.9h-10.99c0,8.62,2.25,16.74,6.2,23.81v28.47c0,3.98,2.86,9.9,10.72,9.9,1.3,0,1.82.4,2.11.7.96,1.01,1.07,3.08,1.04,3.7v.15s.41,26.23.41,26.23c-6.77-1.47-13.24-3.76-19.28-6.78v-39.48c1.98-1.18,3.31-3.35,3.31-5.83,0-3.76-3.05-6.81-6.81-6.81s-6.81,3.05-6.81,6.81c0,2.48,1.33,4.65,3.31,5.83v35.56c-2.27-1.41-4.47-2.94-6.59-4.57l.65-83.78c.03-3.1.04-6.21.05-9.31.02-5.34.04-10.85.13-16.26.06-3.62.6-6.24,1.71-8.24,2.19-3.95,6.91-5.88,14.41-5.88h6.93c1.18,1.98,3.35,3.31,5.83,3.31,3.76,0,6.81-3.05,6.81-6.81s-3.05-6.81-6.81-6.81c-2.48,0-4.65,1.33-5.83,3.31h-6.93c-10.13,0-17.04,3.19-20.53,9.48-2.22,4-2.54,8.5-2.59,11.53-.09,5.45-.11,10.99-.13,16.34-.01,3.1-.02,6.2-.05,9.29l-.6,77.85c-2.19-2.09-4.26-4.31-6.21-6.63h.32v-78.56c1.98-1.19,3.31-3.36,3.31-5.84,0-3.76-3.05-6.81-6.81-6.81s-6.81,3.05-6.81,6.81c0,2.48,1.33,4.65,3.31,5.84v69.39c-8.06-12.79-12.72-27.92-12.72-44.12,0-45.79,37.25-83.05,83.04-83.05s83.05,37.26,83.05,83.05c0,15.37-4.2,29.78-11.51,42.14v-56.88c1.98-1.19,3.31-3.36,3.31-5.84,0-3.76-3.05-6.81-6.81-6.81Z"/>
  </g>
  <rect class="cls-10" x="148.22" y="125.11" width="35.82" height="7"/>
</svg>