<?xml version="1.0" encoding="UTF-8"?>
<svg xmlns="http://www.w3.org/2000/svg" xmlns:xlink="http://www.w3.org/1999/xlink" width="80px" height="92px" viewBox="0 0 96 110" version="1.1">
<defs>
<linearGradient id="linear0" gradientUnits="userSpaceOnUse" x1="110.059998" y1="156.979996" x2="290.149994" y2="156.979996" gradientTransform="matrix(0.499255,0,0,0.496995,-51.486444,-31.857407)">
<stop offset="0" style="stop-color:rgb(84.313725%,37.254902%,59.215686%);stop-opacity:1;"/>
<stop offset="1" style="stop-color:rgb(94.901961%,83.529412%,40.784314%);stop-opacity:1;"/>
</linearGradient>
<linearGradient id="linear1" gradientUnits="userSpaceOnUse" x1="110.059998" y1="156.979996" x2="290.149994" y2="156.979996" gradientTransform="matrix(0.499255,0,0,0.496995,-51.626235,-31.996566)">
<stop offset="0" style="stop-color:rgb(84.313725%,37.254902%,59.215686%);stop-opacity:1;"/>
<stop offset="1" style="stop-color:rgb(94.901961%,83.529412%,40.784314%);stop-opacity:1;"/>
</linearGradient>
<linearGradient id="linear2" gradientUnits="userSpaceOnUse" x1="110.059998" y1="156.979996" x2="290.149994" y2="156.979996" gradientTransform="matrix(0.499255,0,0,0.496995,-51.766027,-32.135725)">
<stop offset="0" style="stop-color:rgb(84.313725%,37.254902%,59.215686%);stop-opacity:1;"/>
<stop offset="1" style="stop-color:rgb(94.901961%,83.529412%,40.784314%);stop-opacity:1;"/>
</linearGradient>
<linearGradient id="linear3" gradientUnits="userSpaceOnUse" x1="110.059998" y1="156.979996" x2="290.149994" y2="156.979996" gradientTransform="matrix(0.499255,0,0,0.496995,-51.91081,-32.279853)">
<stop offset="0" style="stop-color:rgb(84.313725%,37.254902%,59.215686%);stop-opacity:1;"/>
<stop offset="1" style="stop-color:rgb(94.901961%,83.529412%,40.784314%);stop-opacity:1;"/>
</linearGradient>
<linearGradient id="linear4" gradientUnits="userSpaceOnUse" x1="110.059998" y1="156.979996" x2="290.149994" y2="156.979996" gradientTransform="matrix(0.499255,0,0,0.496995,-52.050602,-32.419012)">
<stop offset="0" style="stop-color:rgb(84.313725%,37.254902%,59.215686%);stop-opacity:1;"/>
<stop offset="1" style="stop-color:rgb(94.901961%,83.529412%,40.784314%);stop-opacity:1;"/>
</linearGradient>
<linearGradient id="linear5" gradientUnits="userSpaceOnUse" x1="110.059998" y1="156.979996" x2="290.149994" y2="156.979996" gradientTransform="matrix(0.499255,0,0,0.496995,-52.190393,-32.558171)">
<stop offset="0" style="stop-color:rgb(84.313725%,37.254902%,59.215686%);stop-opacity:1;"/>
<stop offset="1" style="stop-color:rgb(94.901961%,83.529412%,40.784314%);stop-opacity:1;"/>
</linearGradient>
<linearGradient id="linear6" gradientUnits="userSpaceOnUse" x1="110.059998" y1="156.979996" x2="290.149994" y2="156.979996" gradientTransform="matrix(0.499255,0,0,0.496995,-52.335177,-32.7023)">
<stop offset="0" style="stop-color:rgb(84.313725%,37.254902%,59.215686%);stop-opacity:1;"/>
<stop offset="1" style="stop-color:rgb(94.901961%,83.529412%,40.784314%);stop-opacity:1;"/>
</linearGradient>
<linearGradient id="linear7" gradientUnits="userSpaceOnUse" x1="110.059998" y1="156.979996" x2="290.149994" y2="156.979996" gradientTransform="matrix(0.499255,0,0,0.496995,-52.474968,-32.841458)">
<stop offset="0" style="stop-color:rgb(84.313725%,37.254902%,59.215686%);stop-opacity:1;"/>
<stop offset="1" style="stop-color:rgb(94.901961%,83.529412%,40.784314%);stop-opacity:1;"/>
</linearGradient>
<linearGradient id="linear8" gradientUnits="userSpaceOnUse" x1="110.059998" y1="156.979996" x2="290.149994" y2="156.979996" gradientTransform="matrix(0.499255,0,0,0.496995,-52.614759,-32.980617)">
<stop offset="0" style="stop-color:rgb(84.313725%,37.254902%,59.215686%);stop-opacity:1;"/>
<stop offset="1" style="stop-color:rgb(94.901961%,83.529412%,40.784314%);stop-opacity:1;"/>
</linearGradient>
<linearGradient id="linear9" gradientUnits="userSpaceOnUse" x1="110.059998" y1="156.979996" x2="290.149994" y2="156.979996" gradientTransform="matrix(0.499255,0,0,0.496995,-52.759543,-33.124746)">
<stop offset="0" style="stop-color:rgb(84.313725%,37.254902%,59.215686%);stop-opacity:1;"/>
<stop offset="1" style="stop-color:rgb(94.901961%,83.529412%,40.784314%);stop-opacity:1;"/>
</linearGradient>
<linearGradient id="linear10" gradientUnits="userSpaceOnUse" x1="110.059998" y1="156.979996" x2="290.149994" y2="156.979996" gradientTransform="matrix(0.499255,0,0,0.496995,-52.899334,-33.263904)">
<stop offset="0" style="stop-color:rgb(84.313725%,37.254902%,59.215686%);stop-opacity:1;"/>
<stop offset="1" style="stop-color:rgb(94.901961%,83.529412%,40.784314%);stop-opacity:1;"/>
</linearGradient>
</defs>
<g id="surface1">
<path style=" stroke:none;fill-rule:nonzero;fill:rgb(22.352941%,24.313726%,55.29412%);fill-opacity:1;" d="M 12.78125 102.640625 C 13.417969 103.417969 13.800781 104.402344 13.800781 105.476562 C 13.800781 106.726562 13.285156 107.851562 12.464844 108.671875 C 11.640625 109.492188 10.507812 110 9.257812 110 C 4.265625 110 0.175781 105.929688 0.175781 100.960938 L 2.203125 100.960938 C 0.933594 99.402344 0.175781 97.425781 0.175781 95.277344 L 9.257812 95.277344 C 11.753906 95.277344 13.800781 97.3125 13.800781 99.796875 C 13.800781 100.875 13.417969 101.863281 12.78125 102.640625 Z M 12.78125 102.640625 "/>
<path style=" stroke:none;fill-rule:nonzero;fill:rgb(22.352941%,24.313726%,55.29412%);fill-opacity:1;" d="M 22.976562 102.84375 C 23.75 103.539062 24.289062 104.613281 24.289062 105.886719 C 24.289062 107.15625 23.75 108.210938 22.976562 108.90625 C 22.3125 109.511719 21.304688 110 19.832031 110 C 18.359375 110 17.351562 109.519531 16.6875 108.90625 C 15.914062 108.210938 15.375 107.136719 15.375 105.886719 C 15.375 104.632812 15.914062 103.542969 16.6875 102.84375 C 17.351562 102.238281 18.359375 101.75 19.832031 101.75 C 21.304688 101.75 22.3125 102.230469 22.976562 102.84375 Z M 22.027344 105.878906 C 22.027344 104.664062 21.09375 103.679688 19.835938 103.679688 C 18.578125 103.679688 17.644531 104.664062 17.644531 105.878906 C 17.644531 107.097656 18.5625 108.0625 19.835938 108.0625 C 21.109375 108.0625 22.027344 107.058594 22.027344 105.878906 Z M 22.027344 105.878906 "/>
<path style=" stroke:none;fill-rule:nonzero;fill:rgb(22.352941%,24.313726%,55.29412%);fill-opacity:1;" d="M 33.1875 102.84375 C 33.960938 103.539062 34.5 104.613281 34.5 105.886719 C 34.5 107.15625 33.960938 108.210938 33.1875 108.90625 C 32.523438 109.511719 31.515625 110 30.042969 110 C 28.570312 110 27.558594 109.519531 26.898438 108.90625 C 26.121094 108.210938 25.582031 107.136719 25.582031 105.886719 C 25.582031 104.632812 26.121094 103.542969 26.898438 102.84375 C 27.558594 102.238281 28.570312 101.75 30.042969 101.75 C 31.515625 101.75 32.523438 102.230469 33.1875 102.84375 Z M 32.234375 105.878906 C 32.234375 104.664062 31.300781 103.679688 30.042969 103.679688 C 28.785156 103.679688 27.851562 104.664062 27.851562 105.878906 C 27.851562 107.097656 28.769531 108.0625 30.042969 108.0625 C 31.316406 108.0625 32.234375 107.058594 32.234375 105.878906 Z M 32.234375 105.878906 "/>
<path style=" stroke:none;fill-rule:nonzero;fill:rgb(22.352941%,24.313726%,55.29412%);fill-opacity:1;" d="M 38.847656 97.8125 L 38.847656 107.742188 L 42.554688 107.742188 L 42.554688 109.746094 L 36.515625 109.746094 L 36.515625 97.8125 L 38.855469 97.8125 Z M 38.847656 97.8125 "/>
<path style=" stroke:none;fill-rule:nonzero;fill:rgb(22.352941%,24.313726%,55.29412%);fill-opacity:1;" d="M 50.820312 99.816406 L 46.507812 99.816406 L 46.507812 102.480469 L 50.640625 102.480469 L 50.640625 104.484375 L 46.507812 104.484375 L 46.507812 107.738281 L 50.820312 107.738281 L 50.820312 109.742188 L 44.171875 109.742188 L 44.171875 97.808594 L 50.820312 97.808594 Z M 50.820312 99.816406 "/>
<path style=" stroke:none;fill-rule:nonzero;fill:rgb(22.352941%,24.313726%,55.29412%);fill-opacity:1;" d="M 54.304688 97.8125 L 57.503906 105.832031 L 60.707031 97.8125 L 63.257812 97.8125 L 58.191406 109.746094 L 56.785156 109.746094 L 51.753906 97.8125 Z M 54.304688 97.8125 "/>
<path style=" stroke:none;fill-rule:nonzero;fill:rgb(22.352941%,24.313726%,55.29412%);fill-opacity:1;" d="M 70.640625 107.242188 L 65.808594 107.242188 L 64.75 109.746094 L 62.214844 109.746094 L 67.371094 97.8125 L 69.203125 97.8125 L 74.214844 109.746094 L 71.699219 109.746094 Z M 69.960938 105.347656 L 68.253906 101.054688 L 66.546875 105.347656 Z M 69.960938 105.347656 "/>
<path style=" stroke:none;fill-rule:nonzero;fill:rgb(22.352941%,24.313726%,55.29412%);fill-opacity:1;" d="M 79.089844 97.8125 C 80.742188 97.8125 81.585938 98.242188 82.144531 98.707031 C 83.0625 99.480469 83.332031 100.496094 83.332031 101.390625 C 83.332031 102.554688 82.863281 103.574219 81.929688 104.199219 C 81.625 104.414062 81.191406 104.613281 80.617188 104.71875 L 84.355469 109.742188 L 81.445312 109.742188 L 78.246094 104.945312 L 77.957031 104.945312 L 77.957031 109.742188 L 75.617188 109.742188 L 75.617188 97.808594 L 79.089844 97.808594 Z M 77.960938 103.304688 L 78.625 103.304688 C 79.074219 103.304688 80.925781 103.25 80.925781 101.496094 C 80.925781 99.742188 79.09375 99.707031 78.660156 99.707031 L 77.960938 99.707031 Z M 77.960938 103.304688 "/>
<path style=" stroke:none;fill-rule:nonzero;fill:rgb(22.352941%,24.313726%,55.29412%);fill-opacity:1;" d="M 89.0625 97.8125 C 90.734375 97.8125 92.1875 97.992188 93.523438 98.976562 C 94.980469 100.070312 95.824219 101.804688 95.824219 103.789062 C 95.824219 105.769531 94.996094 107.488281 93.417969 108.597656 C 92.015625 109.582031 90.703125 109.742188 89.035156 109.742188 L 85.941406 109.742188 L 85.941406 97.808594 L 89.070312 97.808594 Z M 88.273438 107.742188 L 88.992188 107.742188 C 89.589844 107.742188 90.882812 107.707031 91.925781 106.957031 C 92.878906 106.277344 93.417969 105.058594 93.417969 103.792969 C 93.417969 102.523438 92.898438 101.324219 91.945312 100.605469 C 90.976562 99.890625 89.789062 99.820312 89 99.820312 L 88.28125 99.820312 L 88.28125 107.75 Z M 88.273438 107.742188 "/>
<path style=" stroke:none;fill-rule:nonzero;fill:rgb(11.372549%,11.372549%,10.588235%);fill-opacity:1;" d="M 47 0 C 22.214844 0 2.046875 20.078125 2.046875 44.753906 C 2.046875 69.429688 22.214844 89.507812 47 89.507812 C 71.789062 89.507812 91.960938 69.433594 91.960938 44.753906 C 91.960938 20.074219 71.792969 0 47 0 Z M 80.972656 31.140625 C 79.09375 31.140625 77.570312 32.65625 77.570312 34.527344 C 77.570312 35.757812 78.234375 36.835938 79.222656 37.429688 L 79.222656 70.703125 C 73.980469 77.144531 66.832031 81.984375 58.640625 84.375 L 58.640625 75.90625 C 58.640625 75.265625 58.75 73.675781 59.792969 72.792969 C 60.582031 72.132812 61.863281 71.914062 63.007812 71.785156 C 65.445312 71.519531 68.980469 70.847656 71.535156 68.125 C 74.707031 64.75 74.699219 60.378906 74.699219 56.523438 L 74.699219 27.867188 C 74.714844 27.300781 74.796875 21.554688 71.632812 18.292969 C 70.195312 16.804688 68.34375 16.046875 66.144531 16.046875 L 56.726562 16.046875 C 56.132812 15.0625 55.050781 14.402344 53.8125 14.402344 C 51.933594 14.402344 50.410156 15.917969 50.410156 17.789062 C 50.410156 19.65625 51.933594 21.175781 53.8125 21.175781 C 55.050781 21.175781 56.136719 20.515625 56.726562 19.527344 L 66.144531 19.527344 C 67.375 19.527344 68.351562 19.914062 69.113281 20.699219 C 70.960938 22.601562 71.25 26.453125 71.207031 27.777344 L 71.207031 56.523438 C 71.207031 60.046875 71.207031 63.375 68.984375 65.746094 C 67.621094 67.199219 65.660156 67.992188 62.625 68.328125 C 60.957031 68.515625 59.042969 68.875 57.539062 70.136719 C 55.992188 71.433594 55.144531 73.484375 55.144531 75.90625 L 55.144531 85.230469 C 53.632812 85.53125 52.09375 85.75 50.527344 85.878906 L 50.527344 75.371094 C 51.515625 74.777344 52.179688 73.699219 52.179688 72.460938 C 52.179688 70.59375 50.65625 69.078125 48.777344 69.078125 C 46.902344 69.078125 45.378906 70.59375 45.378906 72.460938 C 45.378906 73.699219 46.042969 74.777344 47.03125 75.371094 L 47.03125 86.03125 L 47 86.03125 C 45.210938 86.03125 43.445312 85.914062 41.714844 85.695312 L 41.496094 72.140625 C 41.519531 71.605469 41.523438 69.355469 40.046875 67.78125 C 39.421875 67.113281 38.289062 66.320312 36.433594 66.320312 C 35.238281 66.320312 34.613281 65.820312 34.574219 64.878906 L 34.574219 55.503906 C 39.0625 60.316406 45.464844 63.332031 52.535156 63.332031 C 55.90625 63.332031 58.972656 61.964844 61.199219 59.75 C 63.425781 57.53125 64.816406 54.476562 64.816406 51.105469 C 64.816406 48.214844 63.78125 45.542969 62.0625 43.4375 C 63.78125 41.335938 64.816406 38.667969 64.816406 35.75 C 64.816406 29.03125 59.28125 23.539062 52.535156 23.539062 L 27.984375 23.539062 C 27.984375 29.335938 30.035156 34.683594 33.472656 38.894531 L 27.984375 38.894531 C 27.984375 43.179688 29.109375 47.214844 31.082031 50.726562 L 31.082031 64.878906 C 31.082031 66.855469 32.507812 69.796875 36.433594 69.796875 C 37.082031 69.796875 37.339844 69.996094 37.484375 70.144531 C 37.964844 70.648438 38.019531 71.675781 38.003906 71.984375 L 38.003906 72.058594 C 38.003906 72.058594 38.210938 85.09375 38.210938 85.09375 C 34.828125 84.363281 31.597656 83.226562 28.585938 81.726562 L 28.585938 62.105469 C 29.574219 61.519531 30.238281 60.441406 30.238281 59.207031 C 30.238281 57.339844 28.714844 55.824219 26.835938 55.824219 C 24.960938 55.824219 23.4375 57.339844 23.4375 59.207031 C 23.4375 60.441406 24.101562 61.519531 25.089844 62.105469 L 25.089844 79.777344 C 23.957031 79.078125 22.859375 78.316406 21.800781 77.507812 L 22.125 35.867188 C 22.136719 34.328125 22.144531 32.78125 22.148438 31.242188 C 22.160156 28.585938 22.167969 25.847656 22.214844 23.160156 C 22.242188 21.359375 22.511719 20.058594 23.066406 19.066406 C 24.160156 17.101562 26.515625 16.140625 30.261719 16.140625 L 33.722656 16.140625 C 34.308594 17.125 35.394531 17.789062 36.632812 17.789062 C 38.507812 17.789062 40.03125 16.273438 40.03125 14.402344 C 40.03125 12.535156 38.507812 11.019531 36.632812 11.019531 C 35.394531 11.019531 34.308594 11.679688 33.722656 12.664062 L 30.261719 12.664062 C 25.203125 12.664062 21.753906 14.25 20.011719 17.375 C 18.902344 19.363281 18.742188 21.597656 18.71875 23.105469 C 18.671875 25.8125 18.664062 28.566406 18.652344 31.226562 C 18.648438 32.765625 18.644531 34.308594 18.628906 35.84375 L 18.328125 74.535156 C 17.234375 73.496094 16.203125 72.390625 15.230469 71.238281 L 15.390625 71.238281 L 15.390625 32.195312 C 16.378906 31.605469 17.042969 30.527344 17.042969 29.292969 C 17.042969 27.425781 15.519531 25.910156 13.640625 25.910156 C 11.765625 25.910156 10.242188 27.425781 10.242188 29.292969 C 10.242188 30.527344 10.90625 31.605469 11.894531 32.195312 L 11.894531 66.683594 C 7.871094 60.324219 5.542969 52.804688 5.542969 44.753906 C 5.542969 21.996094 24.140625 3.480469 47 3.480469 C 69.863281 3.480469 88.464844 21.996094 88.464844 44.753906 C 88.464844 52.394531 86.367188 59.554688 82.71875 65.699219 L 82.71875 37.429688 C 83.707031 36.835938 84.371094 35.757812 84.371094 34.527344 C 84.371094 32.65625 82.847656 31.140625 80.972656 31.140625 Z M 80.972656 31.140625 "/>
<path style=" stroke:none;fill-rule:nonzero;fill:url(#linear0);" d="M 48.414062 1.410156 C 23.625 1.410156 3.460938 21.488281 3.460938 46.164062 C 3.460938 70.839844 23.625 90.921875 48.414062 90.921875 C 73.203125 90.921875 93.371094 70.847656 93.371094 46.164062 C 93.371094 21.484375 73.207031 1.410156 48.414062 1.410156 Z M 82.382812 32.554688 C 80.507812 32.554688 78.984375 34.070312 78.984375 35.9375 C 78.984375 37.171875 79.648438 38.25 80.636719 38.839844 L 80.636719 72.113281 C 75.394531 78.554688 68.246094 83.394531 60.050781 85.785156 L 60.050781 77.316406 C 60.050781 76.675781 60.160156 75.085938 61.207031 74.207031 C 61.992188 73.546875 63.277344 73.328125 64.421875 73.199219 C 66.855469 72.929688 70.390625 72.257812 72.949219 69.535156 C 76.117188 66.160156 76.113281 61.792969 76.113281 57.933594 L 76.113281 29.277344 C 76.128906 28.710938 76.207031 22.964844 73.046875 19.707031 C 71.609375 18.214844 69.757812 17.460938 67.554688 17.460938 L 58.140625 17.460938 C 57.546875 16.476562 56.460938 15.8125 55.222656 15.8125 C 53.347656 15.8125 51.824219 17.332031 51.824219 19.199219 C 51.824219 21.066406 53.347656 22.589844 55.222656 22.589844 C 56.460938 22.589844 57.550781 21.925781 58.140625 20.9375 L 67.554688 20.9375 C 68.789062 20.9375 69.761719 21.324219 70.527344 22.109375 C 72.375 24.015625 72.664062 27.867188 72.617188 29.1875 L 72.617188 57.933594 C 72.617188 61.457031 72.617188 64.789062 70.398438 67.160156 C 69.035156 68.609375 67.070312 69.40625 64.035156 69.738281 C 62.367188 69.925781 60.457031 70.285156 58.953125 71.546875 C 57.40625 72.84375 56.558594 74.898438 56.558594 77.316406 L 56.558594 86.640625 C 55.042969 86.945312 53.507812 87.164062 51.9375 87.292969 L 51.9375 76.78125 C 52.925781 76.1875 53.589844 75.109375 53.589844 73.875 C 53.589844 72.003906 52.070312 70.488281 50.191406 70.488281 C 48.316406 70.488281 46.792969 72.003906 46.792969 73.875 C 46.792969 75.109375 47.457031 76.1875 48.445312 76.78125 L 48.445312 87.441406 L 48.414062 87.441406 C 46.621094 87.441406 44.859375 87.328125 43.128906 87.109375 L 42.90625 73.550781 C 42.933594 73.019531 42.9375 70.765625 41.460938 69.191406 C 40.835938 68.527344 39.703125 67.730469 37.84375 67.730469 C 36.652344 67.730469 36.027344 67.234375 35.988281 66.289062 L 35.988281 56.914062 C 40.476562 61.726562 46.875 64.742188 53.945312 64.742188 C 57.320312 64.742188 60.386719 63.375 62.613281 61.160156 C 64.839844 58.945312 66.226562 55.886719 66.226562 52.515625 C 66.226562 49.625 65.195312 46.957031 63.476562 44.847656 C 65.195312 42.746094 66.226562 40.078125 66.226562 37.160156 C 66.226562 30.441406 60.695312 24.949219 53.945312 24.949219 L 29.398438 24.949219 C 29.398438 30.75 31.449219 36.097656 34.882812 40.304688 L 29.398438 40.304688 C 29.398438 44.589844 30.519531 48.625 32.492188 52.140625 L 32.492188 66.289062 C 32.492188 68.265625 33.921875 71.210938 37.84375 71.210938 C 38.496094 71.210938 38.753906 71.410156 38.898438 71.558594 C 39.378906 72.058594 39.433594 73.089844 39.417969 73.394531 L 39.417969 73.472656 C 39.417969 73.472656 39.621094 86.507812 39.621094 86.507812 C 36.242188 85.777344 33.011719 84.636719 29.996094 83.136719 L 29.996094 63.515625 C 30.984375 62.929688 31.648438 61.851562 31.648438 60.617188 C 31.648438 58.75 30.125 57.234375 28.25 57.234375 C 26.371094 57.234375 24.847656 58.75 24.847656 60.617188 C 24.847656 61.851562 25.511719 62.929688 26.503906 63.515625 L 26.503906 81.1875 C 25.367188 80.488281 24.269531 79.726562 23.210938 78.917969 L 23.535156 37.28125 C 23.550781 35.738281 23.554688 34.191406 23.5625 32.652344 C 23.570312 30 23.582031 27.261719 23.625 24.570312 C 23.65625 22.773438 23.925781 21.46875 24.480469 20.476562 C 25.574219 18.511719 27.929688 17.554688 31.675781 17.554688 L 35.132812 17.554688 C 35.722656 18.539062 36.808594 19.199219 38.042969 19.199219 C 39.921875 19.199219 41.445312 17.683594 41.445312 15.8125 C 41.445312 13.945312 39.921875 12.429688 38.042969 12.429688 C 36.808594 12.429688 35.722656 13.089844 35.132812 14.074219 L 31.675781 14.074219 C 26.617188 14.074219 23.167969 15.660156 21.425781 18.785156 C 20.316406 20.773438 20.15625 23.011719 20.132812 24.515625 C 20.085938 27.226562 20.078125 29.980469 20.066406 32.636719 C 20.0625 34.179688 20.058594 35.71875 20.042969 37.253906 L 19.742188 75.945312 C 18.648438 74.90625 17.617188 73.804688 16.640625 72.652344 L 16.800781 72.652344 L 16.800781 33.605469 C 17.789062 33.015625 18.453125 31.9375 18.453125 30.703125 C 18.453125 28.835938 16.929688 27.320312 15.054688 27.320312 C 13.175781 27.320312 11.652344 28.835938 11.652344 30.703125 C 11.652344 31.9375 12.316406 33.015625 13.308594 33.605469 L 13.308594 68.09375 C 9.28125 61.738281 6.957031 54.21875 6.957031 46.164062 C 6.957031 23.410156 25.554688 4.890625 48.414062 4.890625 C 71.273438 4.890625 89.878906 23.410156 89.878906 46.164062 C 89.878906 53.804688 87.78125 60.964844 84.132812 67.109375 L 84.132812 38.839844 C 85.121094 38.25 85.785156 37.171875 85.785156 35.9375 C 85.785156 34.070312 84.261719 32.554688 82.382812 32.554688 Z M 82.382812 32.554688 "/>
<path style=" stroke:none;fill-rule:nonzero;fill:url(#linear1);" d="M 48.273438 1.273438 C 23.488281 1.273438 3.320312 21.351562 3.320312 46.027344 C 3.320312 70.703125 23.488281 90.78125 48.273438 90.78125 C 73.0625 90.78125 93.234375 70.707031 93.234375 46.027344 C 93.234375 21.347656 73.066406 1.273438 48.273438 1.273438 Z M 82.242188 32.414062 C 80.367188 32.414062 78.84375 33.929688 78.84375 35.796875 C 78.84375 37.03125 79.507812 38.109375 80.496094 38.699219 L 80.496094 71.976562 C 75.253906 78.414062 68.105469 83.257812 59.914062 85.648438 L 59.914062 77.179688 C 59.914062 76.539062 60.023438 74.945312 61.066406 74.066406 C 61.855469 73.40625 63.136719 73.1875 64.28125 73.058594 C 66.71875 72.789062 70.25 72.117188 72.808594 69.394531 C 75.976562 66.019531 75.972656 61.652344 75.972656 57.796875 L 75.972656 29.140625 C 75.988281 28.574219 76.066406 22.828125 72.90625 19.566406 C 71.46875 18.074219 69.617188 17.320312 67.414062 17.320312 L 58 17.320312 C 57.40625 16.335938 56.324219 15.675781 55.085938 15.675781 C 53.207031 15.675781 51.683594 17.191406 51.683594 19.058594 C 51.683594 20.929688 53.207031 22.449219 55.085938 22.449219 C 56.324219 22.449219 57.410156 21.789062 58 20.800781 L 67.414062 20.800781 C 68.648438 20.800781 69.621094 21.1875 70.386719 21.972656 C 72.234375 23.875 72.523438 27.726562 72.476562 29.050781 L 72.476562 57.796875 C 72.476562 61.320312 72.476562 64.648438 70.257812 67.019531 C 68.894531 68.472656 66.933594 69.265625 63.894531 69.597656 C 62.230469 69.789062 60.316406 70.144531 58.8125 71.410156 C 57.265625 72.707031 56.417969 74.757812 56.417969 77.179688 L 56.417969 86.503906 C 54.90625 86.804688 53.367188 87.023438 51.800781 87.152344 L 51.800781 76.640625 C 52.789062 76.050781 53.453125 74.972656 53.453125 73.734375 C 53.453125 71.867188 51.929688 70.351562 50.050781 70.351562 C 48.175781 70.351562 46.652344 71.867188 46.652344 73.734375 C 46.652344 74.972656 47.316406 76.050781 48.304688 76.640625 L 48.304688 87.300781 L 48.273438 87.300781 C 46.480469 87.300781 44.71875 87.1875 42.988281 86.96875 L 42.769531 73.410156 C 42.792969 72.878906 42.796875 70.628906 41.320312 69.050781 C 40.695312 68.386719 39.5625 67.589844 37.707031 67.589844 C 36.511719 67.589844 35.886719 67.09375 35.847656 66.148438 L 35.847656 56.777344 C 40.335938 61.585938 46.738281 64.605469 53.804688 64.605469 C 57.179688 64.605469 60.246094 63.238281 62.472656 61.019531 C 64.699219 58.804688 66.089844 55.746094 66.089844 52.378906 C 66.089844 49.484375 65.054688 46.816406 63.335938 44.710938 C 65.054688 42.605469 66.089844 39.9375 66.089844 37.019531 C 66.089844 30.300781 60.554688 24.808594 53.804688 24.808594 L 29.257812 24.808594 C 29.257812 30.609375 31.308594 35.957031 34.746094 40.167969 L 29.257812 40.167969 C 29.257812 44.453125 30.382812 48.488281 32.351562 52 L 32.351562 66.148438 C 32.351562 68.128906 33.78125 71.070312 37.707031 71.070312 C 38.355469 71.070312 38.613281 71.269531 38.757812 71.417969 C 39.238281 71.921875 39.292969 72.949219 39.277344 73.257812 L 39.277344 73.332031 C 39.277344 73.332031 39.484375 86.367188 39.484375 86.367188 C 36.101562 85.636719 32.871094 84.5 29.855469 83 L 29.855469 63.375 C 30.84375 62.789062 31.507812 61.710938 31.507812 60.480469 C 31.507812 58.609375 29.988281 57.09375 28.109375 57.09375 C 26.234375 57.09375 24.710938 58.609375 24.710938 60.480469 C 24.710938 61.710938 25.375 62.789062 26.363281 63.375 L 26.363281 81.050781 C 25.230469 80.347656 24.128906 79.589844 23.070312 78.777344 L 23.398438 37.140625 C 23.410156 35.601562 23.417969 34.054688 23.421875 32.511719 C 23.433594 29.859375 23.441406 27.121094 23.488281 24.433594 C 23.515625 22.632812 23.785156 21.332031 24.339844 20.335938 C 25.433594 18.375 27.789062 17.414062 31.535156 17.414062 L 34.996094 17.414062 C 35.582031 18.398438 36.667969 19.058594 37.90625 19.058594 C 39.78125 19.058594 41.304688 17.542969 41.304688 15.675781 C 41.304688 13.804688 39.78125 12.289062 37.90625 12.289062 C 36.667969 12.289062 35.582031 12.953125 34.996094 13.9375 L 31.535156 13.9375 C 26.476562 13.9375 23.027344 15.519531 21.285156 18.648438 C 20.175781 20.636719 20.015625 22.871094 19.992188 24.378906 C 19.945312 27.085938 19.9375 29.839844 19.925781 32.5 C 19.921875 34.039062 19.917969 35.578125 19.902344 37.117188 L 19.601562 75.808594 C 18.507812 74.769531 17.476562 73.664062 16.503906 72.511719 L 16.660156 72.511719 L 16.660156 33.46875 C 17.648438 32.875 18.3125 31.796875 18.3125 30.566406 C 18.3125 28.695312 16.792969 27.179688 14.914062 27.179688 C 13.039062 27.179688 11.515625 28.695312 11.515625 30.566406 C 11.515625 31.796875 12.179688 32.875 13.167969 33.46875 L 13.167969 67.953125 C 9.144531 61.597656 6.816406 54.078125 6.816406 46.027344 C 6.816406 23.269531 25.414062 4.75 48.273438 4.75 C 71.136719 4.75 89.738281 23.269531 89.738281 46.027344 C 89.738281 53.664062 87.640625 60.828125 83.992188 66.96875 L 83.992188 38.699219 C 84.980469 38.109375 85.644531 37.03125 85.644531 35.796875 C 85.644531 33.929688 84.121094 32.414062 82.242188 32.414062 Z M 82.242188 32.414062 "/>
<path style=" stroke:none;fill-rule:nonzero;fill:url(#linear2);" d="M 48.128906 1.128906 C 23.34375 1.128906 3.175781 21.207031 3.175781 45.882812 C 3.175781 70.558594 23.34375 90.636719 48.128906 90.636719 C 72.917969 90.636719 93.085938 70.5625 93.085938 45.882812 C 93.085938 21.203125 72.921875 1.128906 48.128906 1.128906 Z M 82.097656 32.269531 C 80.222656 32.269531 78.699219 33.785156 78.699219 35.65625 C 78.699219 36.886719 79.363281 37.964844 80.351562 38.558594 L 80.351562 71.832031 C 75.109375 78.273438 67.960938 83.113281 59.765625 85.503906 L 59.765625 77.035156 C 59.765625 76.394531 59.878906 74.804688 60.921875 73.921875 C 61.710938 73.261719 62.992188 73.042969 64.136719 72.914062 C 66.574219 72.644531 70.105469 71.976562 72.664062 69.25 C 75.832031 65.875 75.828125 61.507812 75.828125 57.652344 L 75.828125 28.996094 C 75.84375 28.429688 75.921875 22.683594 72.761719 19.421875 C 71.324219 17.929688 69.472656 17.175781 67.269531 17.175781 L 57.855469 17.175781 C 57.261719 16.191406 56.179688 15.53125 54.941406 15.53125 C 53.0625 15.53125 51.539062 17.046875 51.539062 18.914062 C 51.539062 20.785156 53.0625 22.304688 54.941406 22.304688 C 56.179688 22.304688 57.265625 21.644531 57.855469 20.65625 L 67.269531 20.65625 C 68.503906 20.65625 69.476562 21.042969 70.242188 21.828125 C 72.089844 23.730469 72.378906 27.582031 72.332031 28.90625 L 72.332031 57.652344 C 72.332031 61.175781 72.332031 64.503906 70.113281 66.875 C 68.75 68.328125 66.785156 69.121094 63.75 69.457031 C 62.082031 69.644531 60.171875 70 58.667969 71.265625 C 57.121094 72.5625 56.273438 74.613281 56.273438 77.035156 L 56.273438 86.359375 C 54.761719 86.660156 53.222656 86.878906 51.65625 87.007812 L 51.65625 76.496094 C 52.644531 75.90625 53.308594 74.828125 53.308594 73.589844 C 53.308594 71.722656 51.785156 70.207031 49.90625 70.207031 C 48.03125 70.207031 46.507812 71.722656 46.507812 73.589844 C 46.507812 74.828125 47.171875 75.90625 48.160156 76.496094 L 48.160156 87.15625 L 48.128906 87.15625 C 46.335938 87.15625 44.574219 87.042969 42.84375 86.824219 L 42.621094 73.265625 C 42.648438 72.734375 42.652344 70.484375 41.175781 68.910156 C 40.550781 68.242188 39.417969 67.445312 37.5625 67.445312 C 36.367188 67.445312 35.742188 66.949219 35.703125 66.007812 L 35.703125 56.632812 C 40.191406 61.445312 46.59375 64.460938 53.660156 64.460938 C 57.035156 64.460938 60.101562 63.09375 62.328125 60.878906 C 64.554688 58.660156 65.941406 55.605469 65.941406 52.234375 C 65.941406 49.339844 64.910156 46.671875 63.191406 44.566406 C 64.910156 42.464844 65.941406 39.792969 65.941406 36.878906 C 65.941406 30.15625 60.410156 24.664062 53.660156 24.664062 L 29.113281 24.664062 C 29.113281 30.464844 31.164062 35.8125 34.601562 40.023438 L 29.113281 40.023438 C 29.113281 44.308594 30.238281 48.34375 32.207031 51.855469 L 32.207031 66.007812 C 32.207031 67.984375 33.636719 70.925781 37.5625 70.925781 C 38.210938 70.925781 38.46875 71.125 38.613281 71.273438 C 39.09375 71.777344 39.148438 72.804688 39.132812 73.113281 L 39.132812 73.1875 C 39.132812 73.1875 39.339844 86.222656 39.339844 86.222656 C 35.957031 85.492188 32.726562 84.355469 29.710938 82.855469 L 29.710938 63.234375 C 30.699219 62.644531 31.363281 61.566406 31.363281 60.335938 C 31.363281 58.464844 29.84375 56.949219 27.964844 56.949219 C 26.085938 56.949219 24.566406 58.464844 24.566406 60.335938 C 24.566406 61.566406 25.230469 62.644531 26.21875 63.234375 L 26.21875 80.90625 C 25.085938 80.207031 23.984375 79.445312 22.925781 78.632812 L 23.253906 36.996094 C 23.265625 35.457031 23.273438 33.910156 23.277344 32.371094 C 23.285156 29.714844 23.296875 26.976562 23.34375 24.289062 C 23.371094 22.488281 23.640625 21.1875 24.195312 20.191406 C 25.289062 18.230469 27.644531 17.269531 31.390625 17.269531 L 34.851562 17.269531 C 35.4375 18.253906 36.523438 18.914062 37.761719 18.914062 C 39.636719 18.914062 41.160156 17.398438 41.160156 15.53125 C 41.160156 13.664062 39.636719 12.148438 37.761719 12.148438 C 36.523438 12.148438 35.4375 12.808594 34.851562 13.792969 L 31.390625 13.792969 C 26.332031 13.792969 22.882812 15.378906 21.140625 18.503906 C 20.03125 20.492188 19.871094 22.726562 19.847656 24.234375 C 19.800781 26.941406 19.792969 29.695312 19.78125 32.355469 C 19.777344 33.894531 19.773438 35.4375 19.757812 36.972656 L 19.457031 75.664062 C 18.363281 74.625 17.332031 73.519531 16.355469 72.367188 L 16.515625 72.367188 L 16.515625 33.324219 C 17.503906 32.730469 18.167969 31.652344 18.167969 30.421875 C 18.167969 28.550781 16.648438 27.035156 14.769531 27.035156 C 12.890625 27.035156 11.371094 28.550781 11.371094 30.421875 C 11.371094 31.652344 12.035156 32.730469 13.023438 33.324219 L 13.023438 67.808594 C 9 61.453125 6.671875 53.933594 6.671875 45.882812 C 6.671875 23.125 25.269531 4.605469 48.128906 4.605469 C 70.992188 4.605469 89.59375 23.125 89.59375 45.882812 C 89.59375 53.519531 87.496094 60.683594 83.847656 66.824219 L 83.847656 38.558594 C 84.835938 37.964844 85.5 36.886719 85.5 35.65625 C 85.5 33.785156 83.976562 32.269531 82.097656 32.269531 Z M 82.097656 32.269531 "/>
<path style=" stroke:none;fill-rule:nonzero;fill:url(#linear3);" d="M 47.988281 0.988281 C 23.203125 0.988281 3.039062 21.066406 3.039062 45.742188 C 3.039062 70.417969 23.203125 90.496094 47.988281 90.496094 C 72.777344 90.496094 92.949219 70.425781 92.949219 45.742188 C 92.949219 21.0625 72.78125 0.988281 47.988281 0.988281 Z M 81.960938 32.128906 C 80.082031 32.128906 78.558594 33.648438 78.558594 35.515625 C 78.558594 36.746094 79.222656 37.828125 80.210938 38.417969 L 80.210938 71.691406 C 74.96875 78.132812 67.820312 82.972656 59.628906 85.363281 L 59.628906 76.894531 C 59.628906 76.253906 59.738281 74.664062 60.78125 73.785156 C 61.570312 73.121094 62.851562 72.902344 63.996094 72.773438 C 66.433594 72.507812 69.96875 71.835938 72.523438 69.113281 C 75.695312 65.738281 75.6875 61.367188 75.6875 57.511719 L 75.6875 28.855469 C 75.703125 28.289062 75.785156 22.542969 72.625 19.285156 C 71.183594 17.792969 69.332031 17.035156 67.132812 17.035156 L 57.714844 17.035156 C 57.121094 16.054688 56.039062 15.390625 54.800781 15.390625 C 52.921875 15.390625 51.398438 16.90625 51.398438 18.777344 C 51.398438 20.644531 52.921875 22.164062 54.800781 22.164062 C 56.039062 22.164062 57.125 21.503906 57.714844 20.515625 L 67.132812 20.515625 C 68.363281 20.515625 69.339844 20.902344 70.101562 21.6875 C 71.949219 23.59375 72.238281 27.445312 72.195312 28.765625 L 72.195312 57.511719 C 72.195312 61.035156 72.195312 64.367188 69.972656 66.738281 C 68.609375 68.1875 66.648438 68.984375 63.613281 69.316406 C 61.945312 69.503906 60.03125 69.863281 58.527344 71.125 C 56.980469 72.421875 56.132812 74.476562 56.132812 76.894531 L 56.132812 86.21875 C 54.621094 86.523438 53.082031 86.742188 51.515625 86.871094 L 51.515625 76.359375 C 52.503906 75.765625 53.167969 74.6875 53.167969 73.449219 C 53.167969 71.582031 51.644531 70.066406 49.765625 70.066406 C 47.890625 70.066406 46.367188 71.582031 46.367188 73.449219 C 46.367188 74.6875 47.03125 75.765625 48.019531 76.359375 L 48.019531 87.019531 L 47.988281 87.019531 C 46.199219 87.019531 44.433594 86.90625 42.703125 86.6875 L 42.484375 73.128906 C 42.507812 72.597656 42.511719 70.34375 41.035156 68.769531 C 40.410156 68.101562 39.277344 67.308594 37.421875 67.308594 C 36.226562 67.308594 35.601562 66.8125 35.5625 65.867188 L 35.5625 56.492188 C 40.050781 61.304688 46.453125 64.320312 53.523438 64.320312 C 56.898438 64.320312 59.960938 62.953125 62.1875 60.738281 C 64.414062 58.519531 65.804688 55.464844 65.804688 52.09375 C 65.804688 49.203125 64.769531 46.535156 63.050781 44.425781 C 64.769531 42.324219 65.804688 39.65625 65.804688 36.738281 C 65.804688 30.019531 60.273438 24.527344 53.523438 24.527344 L 28.972656 24.527344 C 28.972656 30.328125 31.023438 35.675781 34.460938 39.882812 L 28.972656 39.882812 C 28.972656 44.167969 30.097656 48.203125 32.070312 51.71875 L 32.070312 65.867188 C 32.070312 67.84375 33.496094 70.785156 37.421875 70.785156 C 38.070312 70.785156 38.328125 70.984375 38.472656 71.136719 C 38.953125 71.636719 39.007812 72.664062 38.992188 72.972656 L 38.992188 73.046875 C 38.992188 73.046875 39.199219 86.085938 39.199219 86.085938 C 35.816406 85.355469 32.589844 84.214844 29.574219 82.714844 L 29.574219 63.09375 C 30.5625 62.507812 31.226562 61.429688 31.226562 60.195312 C 31.226562 58.328125 29.703125 56.8125 27.824219 56.8125 C 25.949219 56.8125 24.425781 58.328125 24.425781 60.195312 C 24.425781 61.429688 25.089844 62.507812 26.078125 63.09375 L 26.078125 80.765625 C 24.945312 80.066406 23.847656 79.304688 22.789062 78.496094 L 23.113281 36.855469 C 23.128906 35.316406 23.132812 33.769531 23.136719 32.230469 C 23.148438 29.578125 23.15625 26.835938 23.203125 24.148438 C 23.230469 22.351562 23.5 21.046875 24.054688 20.054688 C 25.148438 18.089844 27.503906 17.132812 31.25 17.132812 L 34.710938 17.132812 C 35.300781 18.117188 36.382812 18.777344 37.621094 18.777344 C 39.496094 18.777344 41.019531 17.261719 41.019531 15.390625 C 41.019531 13.523438 39.496094 12.007812 37.621094 12.007812 C 36.382812 12.007812 35.300781 12.667969 34.710938 13.652344 L 31.25 13.652344 C 26.191406 13.652344 22.742188 15.238281 21 18.363281 C 19.890625 20.351562 19.730469 22.589844 19.707031 24.09375 C 19.664062 26.804688 19.652344 29.554688 19.640625 32.214844 C 19.636719 33.757812 19.632812 35.296875 19.617188 36.832031 L 19.316406 75.523438 C 18.222656 74.484375 17.191406 73.382812 16.21875 72.226562 L 16.378906 72.226562 L 16.378906 33.183594 C 17.367188 32.59375 18.03125 31.515625 18.03125 30.28125 C 18.03125 28.414062 16.507812 26.898438 14.628906 26.898438 C 12.753906 26.898438 11.230469 28.414062 11.230469 30.28125 C 11.230469 31.515625 11.894531 32.59375 12.882812 33.183594 L 12.882812 67.671875 C 8.859375 61.3125 6.53125 53.792969 6.53125 45.742188 C 6.53125 22.984375 25.128906 4.46875 47.988281 4.46875 C 70.851562 4.46875 89.453125 22.984375 89.453125 45.742188 C 89.453125 53.382812 87.355469 60.542969 83.707031 66.6875 L 83.707031 38.417969 C 84.695312 37.828125 85.359375 36.746094 85.359375 35.515625 C 85.359375 33.648438 83.835938 32.128906 81.960938 32.128906 Z M 81.960938 32.128906 "/>
<path style=" stroke:none;fill-rule:nonzero;fill:url(#linear4);" d="M 47.851562 0.851562 C 23.0625 0.851562 2.898438 20.929688 2.898438 45.605469 C 2.898438 70.28125 23.0625 90.359375 47.851562 90.359375 C 72.636719 90.359375 92.808594 70.285156 92.808594 45.605469 C 92.808594 20.921875 72.644531 0.851562 47.851562 0.851562 Z M 81.820312 31.992188 C 79.941406 31.992188 78.417969 33.507812 78.417969 35.375 C 78.417969 36.609375 79.082031 37.6875 80.070312 38.277344 L 80.070312 71.550781 C 74.828125 77.992188 67.679688 82.835938 59.488281 85.226562 L 59.488281 76.757812 C 59.488281 76.113281 59.597656 74.523438 60.640625 73.644531 C 61.429688 72.984375 62.714844 72.765625 63.855469 72.636719 C 66.292969 72.367188 69.828125 71.695312 72.382812 68.972656 C 75.554688 65.597656 75.550781 61.230469 75.550781 57.375 L 75.550781 28.714844 C 75.5625 28.148438 75.644531 22.40625 72.484375 19.144531 C 71.046875 17.652344 69.191406 16.898438 66.992188 16.898438 L 57.574219 16.898438 C 56.980469 15.914062 55.898438 15.253906 54.660156 15.253906 C 52.78125 15.253906 51.261719 16.769531 51.261719 18.636719 C 51.261719 20.507812 52.78125 22.027344 54.660156 22.027344 C 55.898438 22.027344 56.988281 21.367188 57.574219 20.375 L 66.992188 20.375 C 68.226562 20.375 69.199219 20.765625 69.960938 21.550781 C 71.808594 23.453125 72.097656 27.304688 72.054688 28.625 L 72.054688 57.375 C 72.054688 60.898438 72.054688 64.226562 69.832031 66.597656 C 68.46875 68.046875 66.507812 68.84375 63.472656 69.175781 C 61.804688 69.367188 59.890625 69.722656 58.390625 70.984375 C 56.84375 72.28125 55.992188 74.335938 55.992188 76.757812 L 55.992188 86.078125 C 54.480469 86.382812 52.941406 86.601562 51.375 86.730469 L 51.375 76.21875 C 52.363281 75.628906 53.027344 74.550781 53.027344 73.3125 C 53.027344 71.441406 51.503906 69.925781 49.628906 69.925781 C 47.75 69.925781 46.226562 71.441406 46.226562 73.3125 C 46.226562 74.550781 46.890625 75.628906 47.878906 76.21875 L 47.878906 86.878906 L 47.851562 86.878906 C 46.058594 86.878906 44.296875 86.765625 42.5625 86.546875 L 42.34375 72.988281 C 42.367188 72.457031 42.375 70.207031 40.894531 68.628906 C 40.273438 67.964844 39.136719 67.167969 37.28125 67.167969 C 36.085938 67.167969 35.464844 66.671875 35.421875 65.726562 L 35.421875 56.355469 C 39.910156 61.164062 46.3125 64.183594 53.382812 64.183594 C 56.757812 64.183594 59.824219 62.816406 62.050781 60.597656 C 64.277344 58.382812 65.664062 55.324219 65.664062 51.957031 C 65.664062 49.0625 64.628906 46.394531 62.914062 44.289062 C 64.628906 42.183594 65.664062 39.515625 65.664062 36.597656 C 65.664062 29.878906 60.132812 24.386719 53.382812 24.386719 L 28.832031 24.386719 C 28.832031 30.1875 30.886719 35.535156 34.320312 39.746094 L 28.832031 39.746094 C 28.832031 44.027344 29.957031 48.0625 31.929688 51.578125 L 31.929688 65.726562 C 31.929688 67.707031 33.355469 70.648438 37.28125 70.648438 C 37.929688 70.648438 38.191406 70.847656 38.335938 70.996094 C 38.8125 71.496094 38.867188 72.527344 38.855469 72.835938 L 38.855469 72.910156 C 38.855469 72.910156 39.058594 85.945312 39.058594 85.945312 C 35.679688 85.214844 32.449219 84.078125 29.433594 82.574219 L 29.433594 62.953125 C 30.421875 62.367188 31.085938 61.289062 31.085938 60.058594 C 31.085938 58.1875 29.5625 56.671875 27.683594 56.671875 C 25.808594 56.671875 24.285156 58.1875 24.285156 60.058594 C 24.285156 61.289062 24.949219 62.367188 25.9375 62.953125 L 25.9375 80.628906 C 24.804688 79.925781 23.707031 79.167969 22.648438 78.355469 L 22.972656 36.71875 C 22.988281 35.175781 22.992188 33.632812 22.996094 32.089844 C 23.007812 29.4375 23.015625 26.699219 23.0625 24.011719 C 23.09375 22.210938 23.363281 20.910156 23.914062 19.914062 C 25.007812 17.953125 27.367188 16.992188 31.109375 16.992188 L 34.570312 16.992188 C 35.160156 17.976562 36.242188 18.636719 37.480469 18.636719 C 39.359375 18.636719 40.878906 17.121094 40.878906 15.253906 C 40.878906 13.382812 39.359375 11.867188 37.480469 11.867188 C 36.242188 11.867188 35.160156 12.527344 34.570312 13.511719 L 31.109375 13.511719 C 26.054688 13.511719 22.601562 15.097656 20.859375 18.226562 C 19.753906 20.210938 19.59375 22.449219 19.566406 23.957031 C 19.523438 26.664062 19.511719 29.417969 19.503906 32.074219 C 19.496094 33.617188 19.492188 35.15625 19.476562 36.691406 L 19.179688 75.382812 C 18.085938 74.34375 17.050781 73.242188 16.078125 72.089844 L 16.238281 72.089844 L 16.238281 33.046875 C 17.226562 32.453125 17.890625 31.375 17.890625 30.144531 C 17.890625 28.273438 16.367188 26.757812 14.488281 26.757812 C 12.613281 26.757812 11.089844 28.273438 11.089844 30.144531 C 11.089844 31.375 11.753906 32.453125 12.742188 33.046875 L 12.742188 67.53125 C 8.71875 61.175781 6.390625 53.65625 6.390625 45.605469 C 6.390625 22.847656 24.988281 4.328125 47.851562 4.328125 C 70.710938 4.328125 89.3125 22.847656 89.3125 45.605469 C 89.3125 53.242188 87.214844 60.40625 83.566406 66.546875 L 83.566406 38.277344 C 84.554688 37.6875 85.21875 36.609375 85.21875 35.375 C 85.21875 33.507812 83.695312 31.992188 81.820312 31.992188 Z M 81.820312 31.992188 "/>
<path style=" stroke:none;fill-rule:nonzero;fill:url(#linear5);" d="M 47.707031 0.707031 C 22.917969 0.707031 2.753906 20.785156 2.753906 45.460938 C 2.753906 70.136719 22.917969 90.214844 47.707031 90.214844 C 72.492188 90.214844 92.664062 70.140625 92.664062 45.460938 C 92.664062 20.78125 72.5 0.707031 47.707031 0.707031 Z M 81.675781 31.847656 C 79.796875 31.847656 78.273438 33.363281 78.273438 35.230469 C 78.273438 36.464844 78.9375 37.542969 79.925781 38.132812 L 79.925781 71.410156 C 74.683594 77.847656 67.535156 82.691406 59.34375 85.082031 L 59.34375 76.613281 C 59.34375 75.972656 59.453125 74.378906 60.496094 73.5 C 61.285156 72.839844 62.566406 72.621094 63.710938 72.492188 C 66.148438 72.222656 69.683594 71.550781 72.238281 68.828125 C 75.410156 65.453125 75.402344 61.085938 75.402344 57.230469 L 75.402344 28.574219 C 75.417969 28.003906 75.5 22.261719 72.339844 19 C 70.902344 17.507812 69.046875 16.753906 66.847656 16.753906 L 57.429688 16.753906 C 56.835938 15.769531 55.753906 15.109375 54.515625 15.109375 C 52.636719 15.109375 51.117188 16.625 51.117188 18.492188 C 51.117188 20.363281 52.636719 21.882812 54.515625 21.882812 C 55.753906 21.882812 56.84375 21.222656 57.429688 20.234375 L 66.847656 20.234375 C 68.078125 20.234375 69.054688 20.621094 69.816406 21.40625 C 71.664062 23.308594 71.953125 27.160156 71.910156 28.484375 L 71.910156 57.230469 C 71.910156 60.753906 71.910156 64.082031 69.6875 66.453125 C 68.324219 67.90625 66.363281 68.699219 63.328125 69.03125 C 61.660156 69.222656 59.746094 69.578125 58.246094 70.839844 C 56.695312 72.140625 55.847656 74.191406 55.847656 76.613281 L 55.847656 85.933594 C 54.335938 86.238281 52.796875 86.457031 51.230469 86.585938 L 51.230469 76.074219 C 52.21875 75.484375 52.882812 74.40625 52.882812 73.167969 C 52.882812 71.300781 51.359375 69.78125 49.484375 69.78125 C 47.605469 69.78125 46.082031 71.300781 46.082031 73.167969 C 46.082031 74.40625 46.746094 75.484375 47.734375 76.074219 L 47.734375 86.734375 L 47.707031 86.734375 C 45.914062 86.734375 44.152344 86.621094 42.417969 86.402344 L 42.199219 72.84375 C 42.222656 72.3125 42.230469 70.0625 40.75 68.484375 C 40.125 67.820312 38.992188 67.023438 37.136719 67.023438 C 35.941406 67.023438 35.320312 66.527344 35.277344 65.582031 L 35.277344 56.210938 C 39.765625 61.019531 46.167969 64.039062 53.238281 64.039062 C 56.613281 64.039062 59.675781 62.671875 61.902344 60.453125 C 64.132812 58.238281 65.519531 55.179688 65.519531 51.8125 C 65.519531 48.917969 64.484375 46.25 62.769531 44.144531 C 64.484375 42.039062 65.519531 39.371094 65.519531 36.453125 C 65.519531 29.734375 59.988281 24.242188 53.238281 24.242188 L 28.6875 24.242188 C 28.6875 30.042969 30.742188 35.390625 34.175781 39.601562 L 28.6875 39.601562 C 28.6875 43.882812 29.8125 47.921875 31.785156 51.433594 L 31.785156 65.582031 C 31.785156 67.5625 33.210938 70.503906 37.136719 70.503906 C 37.785156 70.503906 38.042969 70.703125 38.191406 70.851562 C 38.667969 71.355469 38.722656 72.382812 38.707031 72.691406 L 38.707031 72.765625 C 38.707031 72.765625 38.914062 85.800781 38.914062 85.800781 C 35.535156 85.070312 32.304688 83.933594 29.289062 82.433594 L 29.289062 62.808594 C 30.277344 62.222656 30.941406 61.144531 30.941406 59.914062 C 30.941406 58.042969 29.417969 56.527344 27.539062 56.527344 C 25.664062 56.527344 24.140625 58.042969 24.140625 59.914062 C 24.140625 61.144531 24.804688 62.222656 25.792969 62.808594 L 25.792969 80.484375 C 24.660156 79.78125 23.5625 79.023438 22.503906 78.210938 L 22.828125 36.574219 C 22.84375 35.035156 22.847656 33.488281 22.851562 31.945312 C 22.863281 29.292969 22.871094 26.554688 22.917969 23.867188 C 22.949219 22.066406 23.21875 20.765625 23.769531 19.769531 C 24.863281 17.808594 27.222656 16.847656 30.964844 16.847656 L 34.425781 16.847656 C 35.015625 17.832031 36.097656 18.492188 37.335938 18.492188 C 39.214844 18.492188 40.734375 16.976562 40.734375 15.109375 C 40.734375 13.238281 39.214844 11.722656 37.335938 11.722656 C 36.097656 11.722656 35.015625 12.386719 34.425781 13.371094 L 30.964844 13.371094 C 25.90625 13.371094 22.457031 14.953125 20.714844 18.082031 C 19.605469 20.070312 19.449219 22.304688 19.421875 23.8125 C 19.378906 26.519531 19.367188 29.273438 19.359375 31.933594 C 19.351562 33.472656 19.347656 35.011719 19.332031 36.550781 L 19.035156 75.238281 C 17.941406 74.203125 16.90625 73.097656 15.933594 71.945312 L 16.09375 71.945312 L 16.09375 32.902344 C 17.082031 32.308594 17.746094 31.230469 17.746094 30 C 17.746094 28.128906 16.222656 26.613281 14.34375 26.613281 C 12.46875 26.613281 10.945312 28.128906 10.945312 30 C 10.945312 31.230469 11.609375 32.308594 12.597656 32.902344 L 12.597656 67.386719 C 8.574219 61.03125 6.246094 53.511719 6.246094 45.460938 C 6.246094 22.703125 24.84375 4.183594 47.707031 4.183594 C 70.566406 4.183594 89.167969 22.703125 89.167969 45.460938 C 89.167969 53.097656 87.070312 60.261719 83.421875 66.402344 L 83.421875 38.132812 C 84.410156 37.542969 85.074219 36.464844 85.074219 35.230469 C 85.074219 33.363281 83.550781 31.847656 81.675781 31.847656 Z M 81.675781 31.847656 "/>
<path style=" stroke:none;fill-rule:nonzero;fill:url(#linear6);" d="M 47.566406 0.566406 C 22.777344 0.566406 2.613281 20.644531 2.613281 45.320312 C 2.613281 69.996094 22.777344 90.074219 47.566406 90.074219 C 72.355469 90.074219 92.523438 70 92.523438 45.320312 C 92.523438 20.640625 72.359375 0.566406 47.566406 0.566406 Z M 81.535156 31.707031 C 79.65625 31.707031 78.136719 33.222656 78.136719 35.09375 C 78.136719 36.324219 78.800781 37.402344 79.789062 37.996094 L 79.789062 71.269531 C 74.546875 77.710938 67.394531 82.550781 59.203125 84.941406 L 59.203125 76.472656 C 59.203125 75.832031 59.3125 74.242188 60.355469 73.363281 C 61.144531 72.699219 62.429688 72.480469 63.570312 72.351562 C 66.007812 72.085938 69.542969 71.414062 72.097656 68.691406 C 75.269531 65.316406 75.265625 60.945312 75.265625 57.089844 L 75.265625 28.433594 C 75.277344 27.867188 75.359375 22.121094 72.199219 18.859375 C 70.761719 17.371094 68.910156 16.613281 66.707031 16.613281 L 57.292969 16.613281 C 56.695312 15.628906 55.613281 14.96875 54.375 14.96875 C 52.5 14.96875 50.976562 16.484375 50.976562 18.355469 C 50.976562 20.222656 52.5 21.742188 54.375 21.742188 C 55.613281 21.742188 56.703125 21.082031 57.292969 20.09375 L 66.707031 20.09375 C 67.941406 20.09375 68.914062 20.480469 69.675781 21.265625 C 71.523438 23.171875 71.8125 27.023438 71.769531 28.34375 L 71.769531 57.089844 C 71.769531 60.613281 71.769531 63.945312 69.546875 66.3125 C 68.183594 67.765625 66.222656 68.558594 63.1875 68.894531 C 61.519531 69.082031 59.609375 69.441406 58.105469 70.703125 C 56.558594 72 55.707031 74.050781 55.707031 76.472656 L 55.707031 85.796875 C 54.195312 86.097656 52.65625 86.316406 51.089844 86.449219 L 51.089844 75.9375 C 52.078125 75.34375 52.742188 74.265625 52.742188 73.027344 C 52.742188 71.160156 51.21875 69.644531 49.34375 69.644531 C 47.464844 69.644531 45.941406 71.160156 45.941406 73.027344 C 45.941406 74.265625 46.605469 75.34375 47.59375 75.9375 L 47.59375 86.597656 L 47.566406 86.597656 C 45.773438 86.597656 44.011719 86.480469 42.277344 86.261719 L 42.058594 72.707031 C 42.082031 72.171875 42.089844 69.921875 40.609375 68.347656 C 39.988281 67.679688 38.855469 66.886719 36.996094 66.886719 C 35.804688 66.886719 35.179688 66.386719 35.140625 65.445312 L 35.140625 56.070312 C 39.628906 60.882812 46.027344 63.898438 53.097656 63.898438 C 56.472656 63.898438 59.539062 62.53125 61.765625 60.316406 C 63.992188 58.097656 65.378906 55.042969 65.378906 51.671875 C 65.378906 48.78125 64.34375 46.109375 62.628906 44.003906 C 64.34375 41.902344 65.378906 39.234375 65.378906 36.316406 C 65.378906 29.597656 59.847656 24.105469 53.097656 24.105469 L 28.550781 24.105469 C 28.550781 29.902344 30.601562 35.25 34.035156 39.460938 L 28.550781 39.460938 C 28.550781 43.746094 29.671875 47.78125 31.644531 51.292969 L 31.644531 65.445312 C 31.644531 67.421875 33.074219 70.363281 36.996094 70.363281 C 37.644531 70.363281 37.90625 70.5625 38.050781 70.710938 C 38.527344 71.214844 38.585938 72.242188 38.570312 72.550781 L 38.570312 72.625 C 38.570312 72.625 38.773438 85.664062 38.773438 85.664062 C 35.394531 84.929688 32.164062 83.792969 29.148438 82.292969 L 29.148438 62.671875 C 30.136719 62.085938 30.800781 61.007812 30.800781 59.773438 C 30.800781 57.90625 29.277344 56.390625 27.402344 56.390625 C 25.523438 56.390625 24 57.90625 24 59.773438 C 24 61.007812 24.664062 62.085938 25.652344 62.671875 L 25.652344 80.34375 C 24.519531 79.644531 23.421875 78.882812 22.363281 78.074219 L 22.6875 36.433594 C 22.703125 34.894531 22.707031 33.347656 22.710938 31.808594 C 22.722656 29.152344 22.734375 26.414062 22.777344 23.726562 C 22.808594 21.925781 23.078125 20.625 23.632812 19.632812 C 24.726562 17.667969 27.082031 16.710938 30.824219 16.710938 L 34.285156 16.710938 C 34.875 17.691406 35.957031 18.355469 37.195312 18.355469 C 39.074219 18.355469 40.597656 16.839844 40.597656 14.96875 C 40.597656 13.101562 39.074219 11.585938 37.195312 11.585938 C 35.957031 11.585938 34.875 12.246094 34.285156 13.230469 L 30.824219 13.230469 C 25.769531 13.230469 22.316406 14.816406 20.574219 17.941406 C 19.46875 19.929688 19.308594 22.164062 19.28125 23.671875 C 19.238281 26.378906 19.226562 29.132812 19.21875 31.792969 C 19.214844 33.332031 19.207031 34.875 19.191406 36.410156 L 18.894531 75.101562 C 17.800781 74.0625 16.765625 72.957031 15.792969 71.804688 L 15.953125 71.804688 L 15.953125 32.761719 C 16.941406 32.171875 17.605469 31.09375 17.605469 29.859375 C 17.605469 27.992188 16.082031 26.476562 14.207031 26.476562 C 12.328125 26.476562 10.804688 27.992188 10.804688 29.859375 C 10.804688 31.09375 11.46875 32.171875 12.457031 32.761719 L 12.457031 67.25 C 8.433594 60.890625 6.109375 53.371094 6.109375 45.320312 C 6.109375 22.5625 24.703125 4.046875 47.566406 4.046875 C 70.425781 4.046875 89.027344 22.5625 89.027344 45.320312 C 89.027344 52.960938 86.933594 60.121094 83.28125 66.265625 L 83.28125 37.996094 C 84.269531 37.402344 84.933594 36.324219 84.933594 35.09375 C 84.933594 33.222656 83.414062 31.707031 81.535156 31.707031 Z M 81.535156 31.707031 "/>
<path style=" stroke:none;fill-rule:nonzero;fill:url(#linear7);" d="M 47.425781 0.425781 C 22.636719 0.425781 2.472656 20.507812 2.472656 45.183594 C 2.472656 69.859375 22.636719 89.9375 47.425781 89.9375 C 72.214844 89.9375 92.382812 69.863281 92.382812 45.183594 C 92.382812 20.5 72.21875 0.425781 47.425781 0.425781 Z M 81.394531 31.570312 C 79.519531 31.570312 77.996094 33.085938 77.996094 34.953125 C 77.996094 36.1875 78.660156 37.265625 79.648438 37.855469 L 79.648438 71.128906 C 74.40625 77.570312 67.257812 82.410156 59.0625 84.800781 L 59.0625 76.332031 C 59.0625 75.691406 59.171875 74.101562 60.214844 73.222656 C 61.003906 72.5625 62.289062 72.34375 63.433594 72.214844 C 65.867188 71.945312 69.402344 71.273438 71.960938 68.550781 C 75.128906 65.175781 75.125 60.808594 75.125 56.949219 L 75.125 28.292969 C 75.140625 27.726562 75.21875 21.980469 72.058594 18.722656 C 70.621094 17.230469 68.769531 16.476562 66.566406 16.476562 L 57.152344 16.476562 C 56.558594 15.492188 55.472656 14.832031 54.234375 14.832031 C 52.359375 14.832031 50.835938 16.347656 50.835938 18.214844 C 50.835938 20.082031 52.359375 21.605469 54.234375 21.605469 C 55.472656 21.605469 56.5625 20.945312 57.152344 19.953125 L 66.566406 19.953125 C 67.800781 19.953125 68.773438 20.34375 69.539062 21.128906 C 71.386719 23.03125 71.675781 26.882812 71.628906 28.203125 L 71.628906 56.949219 C 71.628906 60.472656 71.628906 63.804688 69.40625 66.175781 C 68.046875 67.625 66.082031 68.421875 63.046875 68.753906 C 61.378906 68.941406 59.46875 69.300781 57.964844 70.5625 C 56.417969 71.859375 55.570312 73.914062 55.570312 76.332031 L 55.570312 85.65625 C 54.054688 85.960938 52.519531 86.179688 50.949219 86.308594 L 50.949219 75.796875 C 51.9375 75.207031 52.601562 74.125 52.601562 72.890625 C 52.601562 71.019531 51.082031 69.503906 49.203125 69.503906 C 47.324219 69.503906 45.804688 71.019531 45.804688 72.890625 C 45.804688 74.125 46.46875 75.207031 47.457031 75.796875 L 47.457031 86.457031 L 47.425781 86.457031 C 45.632812 86.457031 43.871094 86.34375 42.140625 86.125 L 41.917969 72.566406 C 41.945312 72.035156 41.949219 69.78125 40.472656 68.207031 C 39.847656 67.542969 38.714844 66.746094 36.855469 66.746094 C 35.664062 66.746094 35.039062 66.25 35 65.304688 L 35 55.933594 C 39.488281 60.742188 45.886719 63.757812 52.957031 63.757812 C 56.332031 63.757812 59.398438 62.394531 61.625 60.175781 C 63.851562 57.960938 65.238281 54.902344 65.238281 51.535156 C 65.238281 48.640625 64.207031 45.972656 62.488281 43.863281 C 64.207031 41.761719 65.238281 39.09375 65.238281 36.175781 C 65.238281 29.457031 59.707031 23.964844 52.957031 23.964844 L 28.410156 23.964844 C 28.410156 29.765625 30.460938 35.113281 33.894531 39.324219 L 28.410156 39.324219 C 28.410156 43.605469 29.53125 47.640625 31.503906 51.15625 L 31.503906 65.304688 C 31.503906 67.285156 32.933594 70.226562 36.855469 70.226562 C 37.503906 70.226562 37.765625 70.425781 37.910156 70.574219 C 38.390625 71.074219 38.445312 72.105469 38.429688 72.414062 L 38.429688 72.488281 C 38.429688 72.488281 38.632812 85.523438 38.632812 85.523438 C 35.253906 84.792969 32.023438 83.652344 29.007812 82.152344 L 29.007812 62.53125 C 29.996094 61.945312 30.660156 60.867188 30.660156 59.632812 C 30.660156 57.765625 29.136719 56.25 27.261719 56.25 C 25.382812 56.25 23.859375 57.765625 23.859375 59.632812 C 23.859375 60.867188 24.523438 61.945312 25.511719 62.53125 L 25.511719 80.207031 C 24.378906 79.503906 23.28125 78.742188 22.222656 77.933594 L 22.546875 36.296875 C 22.5625 34.753906 22.566406 33.210938 22.574219 31.667969 C 22.582031 29.015625 22.59375 26.277344 22.636719 23.585938 C 22.667969 21.789062 22.9375 20.484375 23.492188 19.492188 C 24.585938 17.527344 26.941406 16.570312 30.6875 16.570312 L 34.144531 16.570312 C 34.734375 17.554688 35.816406 18.214844 37.054688 18.214844 C 38.933594 18.214844 40.457031 16.699219 40.457031 14.832031 C 40.457031 12.960938 38.933594 11.445312 37.054688 11.445312 C 35.816406 11.445312 34.734375 12.105469 34.144531 13.089844 L 30.6875 13.089844 C 25.628906 13.089844 22.179688 14.675781 20.4375 17.800781 C 19.328125 19.789062 19.167969 22.027344 19.144531 23.53125 C 19.097656 26.242188 19.089844 28.996094 19.078125 31.652344 C 19.074219 33.195312 19.066406 34.734375 19.054688 36.269531 L 18.753906 74.960938 C 17.660156 73.921875 16.625 72.820312 15.652344 71.667969 L 15.8125 71.667969 L 15.8125 32.621094 C 16.800781 32.03125 17.464844 30.953125 17.464844 29.71875 C 17.464844 27.851562 15.941406 26.335938 14.066406 26.335938 C 12.1875 26.335938 10.664062 27.851562 10.664062 29.71875 C 10.664062 30.953125 11.328125 32.03125 12.316406 32.621094 L 12.316406 67.109375 C 8.292969 60.753906 5.96875 53.234375 5.96875 45.183594 C 5.96875 22.425781 24.566406 3.90625 47.425781 3.90625 C 70.285156 3.90625 88.890625 22.425781 88.890625 45.183594 C 88.890625 52.820312 86.792969 59.980469 83.140625 66.125 L 83.140625 37.855469 C 84.132812 37.265625 84.796875 36.1875 84.796875 34.953125 C 84.796875 33.085938 83.273438 31.570312 81.394531 31.570312 Z M 81.394531 31.570312 "/>
<path style=" stroke:none;fill-rule:nonzero;fill:url(#linear8);" d="M 47.28125 0.285156 C 22.492188 0.285156 2.328125 20.363281 2.328125 45.039062 C 2.328125 69.714844 22.492188 89.792969 47.28125 89.792969 C 72.070312 89.792969 92.238281 69.71875 92.238281 45.039062 C 92.238281 20.355469 72.074219 0.285156 47.28125 0.285156 Z M 81.25 31.425781 C 79.375 31.425781 77.851562 32.941406 77.851562 34.808594 C 77.851562 36.042969 78.515625 37.121094 79.503906 37.710938 L 79.503906 70.984375 C 74.261719 77.425781 67.113281 82.269531 58.917969 84.65625 L 58.917969 76.1875 C 58.917969 75.546875 59.027344 73.957031 60.070312 73.078125 C 60.859375 72.417969 62.144531 72.199219 63.289062 72.070312 C 65.722656 71.800781 69.257812 71.128906 71.8125 68.40625 C 74.984375 65.03125 74.980469 60.664062 74.980469 56.804688 L 74.980469 28.148438 C 74.996094 27.582031 75.074219 21.839844 71.914062 18.578125 C 70.476562 17.085938 68.625 16.332031 66.421875 16.332031 L 57.007812 16.332031 C 56.414062 15.347656 55.328125 14.6875 54.089844 14.6875 C 52.214844 14.6875 50.691406 16.203125 50.691406 18.070312 C 50.691406 19.941406 52.214844 21.460938 54.089844 21.460938 C 55.328125 21.460938 56.417969 20.800781 57.007812 19.808594 L 66.421875 19.808594 C 67.65625 19.808594 68.628906 20.199219 69.394531 20.984375 C 71.242188 22.886719 71.53125 26.738281 71.484375 28.058594 L 71.484375 56.804688 C 71.484375 60.332031 71.484375 63.660156 69.261719 66.03125 C 67.898438 67.480469 65.9375 68.277344 62.902344 68.609375 C 61.234375 68.800781 59.324219 69.15625 57.820312 70.417969 C 56.273438 71.714844 55.425781 73.769531 55.425781 76.1875 L 55.425781 85.511719 C 53.910156 85.816406 52.375 86.035156 50.804688 86.164062 L 50.804688 75.652344 C 51.792969 75.0625 52.457031 73.984375 52.457031 72.746094 C 52.457031 70.875 50.9375 69.359375 49.058594 69.359375 C 47.179688 69.359375 45.660156 70.875 45.660156 72.746094 C 45.660156 73.984375 46.324219 75.0625 47.3125 75.652344 L 47.3125 86.3125 L 47.28125 86.3125 C 45.488281 86.3125 43.726562 86.199219 41.992188 85.980469 L 41.773438 72.421875 C 41.800781 71.890625 41.804688 69.640625 40.328125 68.0625 C 39.703125 67.398438 38.570312 66.601562 36.710938 66.601562 C 35.519531 66.601562 34.894531 66.105469 34.855469 65.160156 L 34.855469 55.789062 C 39.34375 60.597656 45.742188 63.617188 52.8125 63.617188 C 56.1875 63.617188 59.253906 62.25 61.480469 60.03125 C 63.707031 57.816406 65.09375 54.757812 65.09375 51.390625 C 65.09375 48.496094 64.0625 45.828125 62.34375 43.71875 C 64.0625 41.617188 65.09375 38.949219 65.09375 36.03125 C 65.09375 29.3125 59.5625 23.820312 52.8125 23.820312 L 28.265625 23.820312 C 28.265625 29.621094 30.316406 34.96875 33.75 39.179688 L 28.265625 39.179688 C 28.265625 43.460938 29.386719 47.496094 31.359375 51.011719 L 31.359375 65.160156 C 31.359375 67.140625 32.789062 70.082031 36.710938 70.082031 C 37.359375 70.082031 37.621094 70.28125 37.765625 70.429688 C 38.246094 70.929688 38.300781 71.960938 38.285156 72.269531 L 38.285156 72.34375 C 38.285156 72.34375 38.488281 85.378906 38.488281 85.378906 C 35.109375 84.648438 31.878906 83.511719 28.863281 82.007812 L 28.863281 62.386719 C 29.851562 61.800781 30.515625 60.722656 30.515625 59.492188 C 30.515625 57.621094 28.992188 56.105469 27.117188 56.105469 C 25.238281 56.105469 23.714844 57.621094 23.714844 59.492188 C 23.714844 60.722656 24.378906 61.800781 25.367188 62.386719 L 25.367188 80.0625 C 24.234375 79.359375 23.136719 78.601562 22.078125 77.789062 L 22.402344 36.152344 C 22.417969 34.609375 22.421875 33.066406 22.429688 31.523438 C 22.4375 28.871094 22.449219 26.132812 22.492188 23.441406 C 22.523438 21.644531 22.792969 20.34375 23.347656 19.347656 C 24.441406 17.386719 26.796875 16.425781 30.542969 16.425781 L 34 16.425781 C 34.589844 17.410156 35.671875 18.070312 36.910156 18.070312 C 38.789062 18.070312 40.3125 16.554688 40.3125 14.6875 C 40.3125 12.816406 38.789062 11.300781 36.910156 11.300781 C 35.671875 11.300781 34.589844 11.960938 34 12.945312 L 30.542969 12.945312 C 25.484375 12.945312 22.035156 14.53125 20.292969 17.660156 C 19.183594 19.644531 19.023438 21.882812 19 23.386719 C 18.953125 26.097656 18.945312 28.851562 18.933594 31.507812 C 18.929688 33.050781 18.921875 34.589844 18.910156 36.125 L 18.609375 74.816406 C 17.515625 73.777344 16.480469 72.675781 15.507812 71.523438 L 15.667969 71.523438 L 15.667969 32.480469 C 16.65625 31.886719 17.320312 30.808594 17.320312 29.578125 C 17.320312 27.707031 15.796875 26.191406 13.921875 26.191406 C 12.042969 26.191406 10.519531 27.707031 10.519531 29.578125 C 10.519531 30.808594 11.183594 31.886719 12.171875 32.480469 L 12.171875 66.964844 C 8.148438 60.609375 5.824219 53.089844 5.824219 45.039062 C 5.824219 22.28125 24.421875 3.761719 47.28125 3.761719 C 70.140625 3.761719 88.746094 22.28125 88.746094 45.039062 C 88.746094 52.675781 86.648438 59.839844 82.996094 65.980469 L 82.996094 37.710938 C 83.984375 37.121094 84.648438 36.042969 84.648438 34.808594 C 84.648438 32.941406 83.128906 31.425781 81.25 31.425781 Z M 81.25 31.425781 "/>
<path style=" stroke:none;fill-rule:nonzero;fill:url(#linear9);" d="M 47.140625 0.144531 C 22.351562 0.144531 2.1875 20.222656 2.1875 44.898438 C 2.1875 69.574219 22.351562 89.652344 47.140625 89.652344 C 71.929688 89.652344 92.097656 69.578125 92.097656 44.898438 C 92.097656 20.21875 71.933594 0.144531 47.140625 0.144531 Z M 81.109375 31.285156 C 79.234375 31.285156 77.710938 32.800781 77.710938 34.671875 C 77.710938 35.902344 78.375 36.980469 79.363281 37.574219 L 79.363281 70.847656 C 74.121094 77.289062 66.972656 82.128906 58.777344 84.519531 L 58.777344 76.050781 C 58.777344 75.410156 58.890625 73.820312 59.933594 72.9375 C 60.722656 72.277344 62.003906 72.058594 63.148438 71.929688 C 65.582031 71.660156 69.117188 70.992188 71.675781 68.265625 C 74.84375 64.894531 74.839844 60.523438 74.839844 56.667969 L 74.839844 28.011719 C 74.855469 27.445312 74.933594 21.699219 71.773438 18.4375 C 70.335938 16.949219 68.484375 16.191406 66.28125 16.191406 L 56.867188 16.191406 C 56.273438 15.207031 55.1875 14.546875 53.949219 14.546875 C 52.074219 14.546875 50.550781 16.0625 50.550781 17.929688 C 50.550781 19.800781 52.074219 21.320312 53.949219 21.320312 C 55.1875 21.320312 56.277344 20.660156 56.867188 19.671875 L 66.28125 19.671875 C 67.515625 19.671875 68.488281 20.058594 69.253906 20.84375 C 71.101562 22.746094 71.390625 26.597656 71.34375 27.921875 L 71.34375 56.667969 C 71.34375 60.191406 71.34375 63.519531 69.125 65.890625 C 67.761719 67.34375 65.796875 68.136719 62.761719 68.472656 C 61.09375 68.660156 59.183594 69.019531 57.679688 70.28125 C 56.132812 71.578125 55.285156 73.628906 55.285156 76.050781 L 55.285156 85.375 C 53.769531 85.675781 52.234375 85.894531 50.667969 86.023438 L 50.667969 75.511719 C 51.65625 74.921875 52.320312 73.84375 52.320312 72.605469 C 52.320312 70.738281 50.796875 69.222656 48.917969 69.222656 C 47.042969 69.222656 45.519531 70.738281 45.519531 72.605469 C 45.519531 73.84375 46.183594 74.921875 47.171875 75.511719 L 47.171875 86.175781 L 47.140625 86.175781 C 45.347656 86.175781 43.585938 86.058594 41.855469 85.839844 L 41.632812 72.28125 C 41.660156 71.75 41.664062 69.5 40.1875 67.925781 C 39.5625 67.257812 38.429688 66.464844 36.570312 66.464844 C 35.378906 66.464844 34.753906 65.964844 34.714844 65.023438 L 34.714844 55.648438 C 39.203125 60.460938 45.605469 63.476562 52.671875 63.476562 C 56.046875 63.476562 59.113281 62.109375 61.339844 59.894531 C 63.566406 57.675781 64.953125 54.621094 64.953125 51.25 C 64.953125 48.359375 63.921875 45.6875 62.203125 43.582031 C 63.921875 41.480469 64.953125 38.808594 64.953125 35.894531 C 64.953125 29.171875 59.421875 23.683594 52.671875 23.683594 L 28.125 23.683594 C 28.125 29.480469 30.175781 34.828125 33.613281 39.039062 L 28.125 39.039062 C 28.125 43.324219 29.246094 47.359375 31.21875 50.871094 L 31.21875 65.023438 C 31.21875 67 32.648438 69.941406 36.570312 69.941406 C 37.222656 69.941406 37.480469 70.140625 37.625 70.289062 C 38.105469 70.792969 38.160156 71.820312 38.144531 72.128906 L 38.144531 72.203125 C 38.144531 72.203125 38.347656 85.238281 38.347656 85.238281 C 34.96875 84.507812 31.738281 83.371094 28.722656 81.871094 L 28.722656 62.25 C 29.710938 61.664062 30.375 60.582031 30.375 59.351562 C 30.375 57.484375 28.855469 55.964844 26.976562 55.964844 C 25.097656 55.964844 23.578125 57.484375 23.578125 59.351562 C 23.578125 60.582031 24.242188 61.664062 25.230469 62.25 L 25.230469 79.921875 C 24.09375 79.222656 22.996094 78.460938 21.9375 77.652344 L 22.261719 36.011719 C 22.277344 34.472656 22.285156 32.925781 22.289062 31.386719 C 22.296875 28.730469 22.308594 25.992188 22.351562 23.304688 C 22.382812 21.503906 22.652344 20.203125 23.207031 19.207031 C 24.300781 17.246094 26.65625 16.285156 30.402344 16.285156 L 33.859375 16.285156 C 34.449219 17.269531 35.535156 17.929688 36.773438 17.929688 C 38.648438 17.929688 40.171875 16.414062 40.171875 14.546875 C 40.171875 12.679688 38.648438 11.164062 36.773438 11.164062 C 35.535156 11.164062 34.449219 11.824219 33.859375 12.808594 L 30.402344 12.808594 C 25.34375 12.808594 21.894531 14.394531 20.152344 17.519531 C 19.042969 19.507812 18.882812 21.742188 18.859375 23.25 C 18.8125 25.957031 18.804688 28.710938 18.792969 31.371094 C 18.789062 32.910156 18.785156 34.453125 18.769531 35.988281 L 18.46875 74.679688 C 17.375 73.640625 16.34375 72.535156 15.367188 71.382812 L 15.527344 71.382812 L 15.527344 32.339844 C 16.515625 31.75 17.179688 30.667969 17.179688 29.4375 C 17.179688 27.566406 15.660156 26.050781 13.78125 26.050781 C 11.902344 26.050781 10.382812 27.566406 10.382812 29.4375 C 10.382812 30.667969 11.046875 31.75 12.035156 32.339844 L 12.035156 66.824219 C 8.007812 60.46875 5.683594 52.949219 5.683594 44.898438 C 5.683594 22.140625 24.28125 3.625 47.140625 3.625 C 70.003906 3.625 88.605469 22.140625 88.605469 44.898438 C 88.605469 52.539062 86.507812 59.699219 82.859375 65.84375 L 82.859375 37.574219 C 83.847656 36.980469 84.511719 35.902344 84.511719 34.671875 C 84.511719 32.800781 82.988281 31.285156 81.109375 31.285156 Z M 81.109375 31.285156 "/>
<path style=" stroke:none;fill-rule:nonzero;fill:url(#linear10);" d="M 47 0 C 22.214844 0 2.046875 20.078125 2.046875 44.753906 C 2.046875 69.429688 22.214844 89.507812 47 89.507812 C 71.789062 89.507812 91.960938 69.433594 91.960938 44.753906 C 91.960938 20.074219 71.792969 0 47 0 Z M 80.972656 31.140625 C 79.09375 31.140625 77.570312 32.65625 77.570312 34.527344 C 77.570312 35.757812 78.234375 36.835938 79.222656 37.429688 L 79.222656 70.703125 C 73.980469 77.144531 66.832031 81.984375 58.640625 84.375 L 58.640625 75.90625 C 58.640625 75.265625 58.75 73.675781 59.792969 72.792969 C 60.582031 72.132812 61.863281 71.914062 63.007812 71.785156 C 65.445312 71.519531 68.980469 70.847656 71.535156 68.125 C 74.707031 64.75 74.699219 60.378906 74.699219 56.523438 L 74.699219 27.867188 C 74.714844 27.300781 74.796875 21.554688 71.632812 18.292969 C 70.195312 16.804688 68.34375 16.046875 66.144531 16.046875 L 56.726562 16.046875 C 56.132812 15.0625 55.050781 14.402344 53.8125 14.402344 C 51.933594 14.402344 50.410156 15.917969 50.410156 17.789062 C 50.410156 19.65625 51.933594 21.175781 53.8125 21.175781 C 55.050781 21.175781 56.136719 20.515625 56.726562 19.527344 L 66.144531 19.527344 C 67.375 19.527344 68.351562 19.914062 69.113281 20.699219 C 70.960938 22.601562 71.25 26.453125 71.207031 27.777344 L 71.207031 56.523438 C 71.207031 60.046875 71.207031 63.375 68.984375 65.746094 C 67.621094 67.199219 65.660156 67.992188 62.625 68.328125 C 60.957031 68.515625 59.042969 68.875 57.539062 70.136719 C 55.992188 71.433594 55.144531 73.484375 55.144531 75.90625 L 55.144531 85.230469 C 53.632812 85.53125 52.09375 85.75 50.527344 85.878906 L 50.527344 75.371094 C 51.515625 74.777344 52.179688 73.699219 52.179688 72.460938 C 52.179688 70.59375 50.65625 69.078125 48.777344 69.078125 C 46.902344 69.078125 45.378906 70.59375 45.378906 72.460938 C 45.378906 73.699219 46.042969 74.777344 47.03125 75.371094 L 47.03125 86.03125 L 47 86.03125 C 45.210938 86.03125 43.445312 85.914062 41.714844 85.695312 L 41.496094 72.140625 C 41.519531 71.605469 41.523438 69.355469 40.046875 67.78125 C 39.421875 67.113281 38.289062 66.320312 36.433594 66.320312 C 35.238281 66.320312 34.613281 65.820312 34.574219 64.878906 L 34.574219 55.503906 C 39.0625 60.316406 45.464844 63.332031 52.535156 63.332031 C 55.90625 63.332031 58.972656 61.964844 61.199219 59.75 C 63.425781 57.53125 64.816406 54.476562 64.816406 51.105469 C 64.816406 48.214844 63.78125 45.542969 62.0625 43.4375 C 63.78125 41.335938 64.816406 38.667969 64.816406 35.75 C 64.816406 29.03125 59.28125 23.539062 52.535156 23.539062 L 27.984375 23.539062 C 27.984375 29.335938 30.035156 34.683594 33.472656 38.894531 L 27.984375 38.894531 C 27.984375 43.179688 29.109375 47.214844 31.082031 50.726562 L 31.082031 64.878906 C 31.082031 66.855469 32.507812 69.796875 36.433594 69.796875 C 37.082031 69.796875 37.339844 69.996094 37.484375 70.144531 C 37.964844 70.648438 38.019531 71.675781 38.003906 71.984375 L 38.003906 72.058594 C 38.003906 72.058594 38.210938 85.09375 38.210938 85.09375 C 34.828125 84.363281 31.597656 83.226562 28.585938 81.726562 L 28.585938 62.105469 C 29.574219 61.519531 30.238281 60.441406 30.238281 59.207031 C 30.238281 57.339844 28.714844 55.824219 26.835938 55.824219 C 24.960938 55.824219 23.4375 57.339844 23.4375 59.207031 C 23.4375 60.441406 24.101562 61.519531 25.089844 62.105469 L 25.089844 79.777344 C 23.957031 79.078125 22.859375 78.316406 21.800781 77.507812 L 22.125 35.867188 C 22.136719 34.328125 22.144531 32.78125 22.148438 31.242188 C 22.160156 28.585938 22.167969 25.847656 22.214844 23.160156 C 22.242188 21.359375 22.511719 20.058594 23.066406 19.066406 C 24.160156 17.101562 26.515625 16.140625 30.261719 16.140625 L 33.722656 16.140625 C 34.308594 17.125 35.394531 17.789062 36.632812 17.789062 C 38.507812 17.789062 40.03125 16.273438 40.03125 14.402344 C 40.03125 12.535156 38.507812 11.019531 36.632812 11.019531 C 35.394531 11.019531 34.308594 11.679688 33.722656 12.664062 L 30.261719 12.664062 C 25.203125 12.664062 21.753906 14.25 20.011719 17.375 C 18.902344 19.363281 18.742188 21.597656 18.71875 23.105469 C 18.671875 25.8125 18.664062 28.566406 18.652344 31.226562 C 18.648438 32.765625 18.644531 34.308594 18.628906 35.84375 L 18.328125 74.535156 C 17.234375 73.496094 16.203125 72.390625 15.230469 71.238281 L 15.390625 71.238281 L 15.390625 32.195312 C 16.378906 31.605469 17.042969 30.527344 17.042969 29.292969 C 17.042969 27.425781 15.519531 25.910156 13.640625 25.910156 C 11.765625 25.910156 10.242188 27.425781 10.242188 29.292969 C 10.242188 30.527344 10.90625 31.605469 11.894531 32.195312 L 11.894531 66.683594 C 7.871094 60.324219 5.542969 52.804688 5.542969 44.753906 C 5.542969 21.996094 24.140625 3.480469 47 3.480469 C 69.863281 3.480469 88.464844 21.996094 88.464844 44.753906 C 88.464844 52.394531 86.367188 59.554688 82.71875 65.699219 L 82.71875 37.429688 C 83.707031 36.835938 84.371094 35.757812 84.371094 34.527344 C 84.371094 32.65625 82.847656 31.140625 80.972656 31.140625 Z M 80.972656 31.140625 "/>
<path style=" stroke:none;fill-rule:nonzero;fill:rgb(21.960784%,24.705882%,55.29412%);fill-opacity:1;" d="M 47 0 C 22.214844 0 2.046875 20.078125 2.046875 44.753906 C 2.046875 69.429688 22.214844 89.507812 47 89.507812 C 71.789062 89.507812 91.960938 69.433594 91.960938 44.753906 C 91.960938 20.074219 71.792969 0 47 0 Z M 80.972656 31.140625 C 79.09375 31.140625 77.570312 32.65625 77.570312 34.527344 C 77.570312 35.757812 78.234375 36.835938 79.222656 37.429688 L 79.222656 70.703125 C 73.980469 77.144531 66.832031 81.984375 58.640625 84.375 L 58.640625 75.90625 C 58.640625 75.265625 58.75 73.675781 59.792969 72.792969 C 60.582031 72.132812 61.863281 71.914062 63.007812 71.785156 C 65.445312 71.519531 68.980469 70.847656 71.535156 68.125 C 74.707031 64.75 74.699219 60.378906 74.699219 56.523438 L 74.699219 27.867188 C 74.714844 27.300781 74.796875 21.554688 71.632812 18.292969 C 70.195312 16.804688 68.34375 16.046875 66.144531 16.046875 L 56.726562 16.046875 C 56.132812 15.0625 55.050781 14.402344 53.8125 14.402344 C 51.933594 14.402344 50.410156 15.917969 50.410156 17.789062 C 50.410156 19.65625 51.933594 21.175781 53.8125 21.175781 C 55.050781 21.175781 56.136719 20.515625 56.726562 19.527344 L 66.144531 19.527344 C 67.375 19.527344 68.351562 19.914062 69.113281 20.699219 C 70.960938 22.601562 71.25 26.453125 71.207031 27.777344 L 71.207031 56.523438 C 71.207031 60.046875 71.207031 63.375 68.984375 65.746094 C 67.621094 67.199219 65.660156 67.992188 62.625 68.328125 C 60.957031 68.515625 59.042969 68.875 57.539062 70.136719 C 55.992188 71.433594 55.144531 73.484375 55.144531 75.90625 L 55.144531 85.230469 C 53.632812 85.53125 52.09375 85.75 50.527344 85.878906 L 50.527344 75.371094 C 51.515625 74.777344 52.179688 73.699219 52.179688 72.460938 C 52.179688 70.59375 50.65625 69.078125 48.777344 69.078125 C 46.902344 69.078125 45.378906 70.59375 45.378906 72.460938 C 45.378906 73.699219 46.042969 74.777344 47.03125 75.371094 L 47.03125 86.03125 L 47 86.03125 C 45.210938 86.03125 43.445312 85.914062 41.714844 85.695312 L 41.496094 72.140625 C 41.519531 71.605469 41.523438 69.355469 40.046875 67.78125 C 39.421875 67.113281 38.289062 66.320312 36.433594 66.320312 C 35.238281 66.320312 34.613281 65.820312 34.574219 64.878906 L 34.574219 55.503906 C 39.0625 60.316406 45.464844 63.332031 52.535156 63.332031 C 55.90625 63.332031 58.972656 61.964844 61.199219 59.75 C 63.425781 57.53125 64.816406 54.476562 64.816406 51.105469 C 64.816406 48.214844 63.78125 45.542969 62.0625 43.4375 C 63.78125 41.335938 64.816406 38.667969 64.816406 35.75 C 64.816406 29.03125 59.28125 23.539062 52.535156 23.539062 L 27.984375 23.539062 C 27.984375 29.335938 30.035156 34.683594 33.472656 38.894531 L 27.984375 38.894531 C 27.984375 43.179688 29.109375 47.214844 31.082031 50.726562 L 31.082031 64.878906 C 31.082031 66.855469 32.507812 69.796875 36.433594 69.796875 C 37.082031 69.796875 37.339844 69.996094 37.484375 70.144531 C 37.964844 70.648438 38.019531 71.675781 38.003906 71.984375 L 38.003906 72.058594 C 38.003906 72.058594 38.210938 85.09375 38.210938 85.09375 C 34.828125 84.363281 31.597656 83.226562 28.585938 81.726562 L 28.585938 62.105469 C 29.574219 61.519531 30.238281 60.441406 30.238281 59.207031 C 30.238281 57.339844 28.714844 55.824219 26.835938 55.824219 C 24.960938 55.824219 23.4375 57.339844 23.4375 59.207031 C 23.4375 60.441406 24.101562 61.519531 25.089844 62.105469 L 25.089844 79.777344 C 23.957031 79.078125 22.859375 78.316406 21.800781 77.507812 L 22.125 35.867188 C 22.136719 34.328125 22.144531 32.78125 22.148438 31.242188 C 22.160156 28.585938 22.167969 25.847656 22.214844 23.160156 C 22.242188 21.359375 22.511719 20.058594 23.066406 19.066406 C 24.160156 17.101562 26.515625 16.140625 30.261719 16.140625 L 33.722656 16.140625 C 34.308594 17.125 35.394531 17.789062 36.632812 17.789062 C 38.507812 17.789062 40.03125 16.273438 40.03125 14.402344 C 40.03125 12.535156 38.507812 11.019531 36.632812 11.019531 C 35.394531 11.019531 34.308594 11.679688 33.722656 12.664062 L 30.261719 12.664062 C 25.203125 12.664062 21.753906 14.25 20.011719 17.375 C 18.902344 19.363281 18.742188 21.597656 18.71875 23.105469 C 18.671875 25.8125 18.664062 28.566406 18.652344 31.226562 C 18.648438 32.765625 18.644531 34.308594 18.628906 35.84375 L 18.328125 74.535156 C 17.234375 73.496094 16.203125 72.390625 15.230469 71.238281 L 15.390625 71.238281 L 15.390625 32.195312 C 16.378906 31.605469 17.042969 30.527344 17.042969 29.292969 C 17.042969 27.425781 15.519531 25.910156 13.640625 25.910156 C 11.765625 25.910156 10.242188 27.425781 10.242188 29.292969 C 10.242188 30.527344 10.90625 31.605469 11.894531 32.195312 L 11.894531 66.683594 C 7.871094 60.324219 5.542969 52.804688 5.542969 44.753906 C 5.542969 21.996094 24.140625 3.480469 47 3.480469 C 69.863281 3.480469 88.464844 21.996094 88.464844 44.753906 C 88.464844 52.394531 86.367188 59.554688 82.71875 65.699219 L 82.71875 37.429688 C 83.707031 36.835938 84.371094 35.757812 84.371094 34.527344 C 84.371094 32.65625 82.847656 31.140625 80.972656 31.140625 Z M 80.972656 31.140625 "/>
<path style=" stroke:none;fill-rule:nonzero;fill:rgb(22.352941%,24.313726%,55.29412%);fill-opacity:1;" d="M 21.101562 28.914062 L 38.984375 28.914062 L 38.984375 32.394531 L 21.101562 32.394531 Z M 21.101562 28.914062 "/>
</g>
</svg>
